<?xml version="1.0" encoding="UTF-8"?>
<svg width="625px" height="369px" viewBox="0 0 625 369" version="1.1" xmlns="http://www.w3.org/2000/svg" xmlns:xlink="http://www.w3.org/1999/xlink">
    <title>background-pattern-news-right</title>
    <g id="Page-1" stroke="none" stroke-width="1" fill="none" fill-rule="evenodd">
        <g id="background" transform="translate(-975.000000, 0.000000)">
            <g id="pattern" transform="translate(-103.000000, -534.087097)" stroke="#FFFFFF">
                <line x1="1106" y1="1013.5871" x2="1724.1875" y2="650.778503" id="path" opacity="0.6"></line>
                <polygon id="path" opacity="0.593023256" fill-rule="nonzero" points="761.913846 1335.13281 560 1219.66615 1469.65306 697 1671.56691 812.466667"></polygon>
                <polygon id="path" opacity="0.593023256" fill-rule="nonzero" points="439.913846 638.132812 238 522.666146 1147.65306 0 1349.56691 115.466667"></polygon>
            </g>
            <g id="pattern" transform="translate(1189.000000, 183.000000)" fill-rule="nonzero">
                <polygon id="path" fill="#FF6169" points="136.100775 263 68 224.066667 250.899225 117 319 155.933333"></polygon>
                <polygon id="path" fill="#FF6169" points="68.1007752 146 0 107.066667 182.899225 0 251 38.9333333"></polygon>
                <polygon id="path" fill="#FFB4B5" points="136 263.105263 136 341 319 233.894737 319 156"></polygon>
                <polygon id="path" fill="#FFB4B5" points="68 146.105263 68 224 251 116.894737 251 39"></polygon>
                <polygon id="path" fill="#FFFFFF" points="0 341 68 380 68 302 136 341 136 263 68 224 68 146 0 107"></polygon>
            </g>
        </g>
    </g>
</svg>