<?xml version="1.0" encoding="UTF-8"?>
<svg width="812px" height="937px" viewBox="0 0 812 937" version="1.1" xmlns="http://www.w3.org/2000/svg" xmlns:xlink="http://www.w3.org/1999/xlink">
    <title>background-about</title>
    <g id="Page-1" stroke="none" stroke-width="1" fill="none" fill-rule="evenodd">
        <g id="logo-copy" transform="translate(154.762376, 197.000000)" fill-rule="nonzero">
            <polygon id="Path" fill="#FE465B" points="143.237624 447 143.237624 555 237.237624 501"></polygon>
            <polygon id="Path" fill="#FE465B" points="236.656228 392 142.237624 338.133333 395.819019 190 490.237624 243.866667"></polygon>
            <polygon id="Path" fill="#FE465B" points="120.594059 258 0 189.2 323.881188 0 444.475248 68.8"></polygon>
            <polygon id="Path" fill="#FFBDC4" opacity="0.671488917" points="201.237624 388.315789 201.237624 518 505.237624 339.684211 505.237624 210"></polygon>
            <polygon id="Path" fill="#FFBDC4" opacity="0.717955124" points="142.237624 221.947368 142.237624 339 415.910776 178.052632 415.910776 61"></polygon>
            <polygon id="Path" fill="#FFFFFF" opacity="0.869776526" points="0.237623762 571.37234 143.237624 653.521277 143.237624 489.223404 286.237624 571.37234 286.237624 407.074468 143.237624 324.925532 143.237624 160.62766 57.0990742 111.143812 0.237623762 78.4787234"></polygon>
        </g>
    </g>
</svg>