<?xml version="1.0" encoding="UTF-8"?>
<svg width="64px" height="64px" viewBox="0 0 64 64" version="1.1" xmlns="http://www.w3.org/2000/svg" xmlns:xlink="http://www.w3.org/1999/xlink">
    <title>icon-about-friendly</title>
    <g id="icon-about-friendly" stroke="none" stroke-width="1" fill="none" fill-rule="evenodd">
        <path d="M38.4782609,12.9523243 C38.4782609,16.2403882 35.8023913,18.9046485 32.5,18.9046485 C29.1976087,18.9046485 26.5217391,16.2403882 26.5217391,12.9523243 C26.5217391,9.66426034 29.1976087,7 32.5,7 C35.8023913,7 38.4782609,9.66426034 38.4782609,12.9523243 L38.4782609,12.9523243 Z" id="path" stroke="#FE465B" stroke-width="3"></path>
        <path d="M52.826087,15.333254 C52.826087,17.3046638 51.2191304,18.9046485 49.2391304,18.9046485 C47.2591304,18.9046485 45.6521739,17.3046638 45.6521739,15.333254 C45.6521739,13.3618442 47.2591304,11.7618594 49.2391304,11.7618594 C51.2191304,11.7618594 52.826087,13.3618442 52.826087,15.333254 L52.826087,15.333254 Z" id="path" stroke="#FE465B" stroke-width="3"></path>
        <path d="M19.3478261,15.333254 C19.3478261,17.3046638 17.7408696,18.9046485 15.7608696,18.9046485 C13.7808696,18.9046485 12.173913,17.3046638 12.173913,15.333254 C12.173913,13.3618442 13.7808696,11.7618594 15.7608696,11.7618594 C17.7408696,11.7618594 19.3478261,13.3618442 19.3478261,15.333254 L19.3478261,15.333254 Z" id="path" stroke="#FE465B" stroke-width="3"></path>
        <path d="M44.4565217,47.9477053 C53.6582609,48.7191265 60,50.3524443 60,52.2381406 C60,54.866687 47.6895652,57 32.5,57 C17.3128261,57 5,54.866687 5,52.2381406 C5,50.3572061 11.301087,48.7310311 20.4430435,47.957229" id="path" stroke="#FE465B" stroke-width="3"></path>
        <path d="M38.4782609,45.0948753 L26.5217391,45.0948753 L26.5217391,29.6188322 C26.5217391,26.3307683 29.1976087,23.6665079 32.5,23.6665079 C35.8023913,23.6665079 38.4782609,26.3307683 38.4782609,29.6188322 L38.4782609,45.0948753 L38.4782609,45.0948753 Z" id="path" stroke="#FE465B" stroke-width="3"></path>
        <path d="M52.826087,40.3330159 L45.6521739,40.3330159 L45.6521739,27.2379025 C45.6521739,25.2664927 47.2591304,23.6665079 49.2391304,23.6665079 C51.2191304,23.6665079 52.826087,25.2664927 52.826087,27.2379025 L52.826087,40.3330159 L52.826087,40.3330159 Z" id="path" stroke="#FE465B" stroke-width="3"></path>
        <path d="M19.3478261,40.3330159 L12.173913,40.3330159 L12.173913,27.2379025 C12.173913,25.2664927 13.7808696,23.6665079 15.7608696,23.6665079 C17.7408696,23.6665079 19.3478261,25.2664927 19.3478261,27.2379025 L19.3478261,40.3330159 L19.3478261,40.3330159 Z" id="path" stroke="#FE465B" stroke-width="3"></path>
    </g>
</svg>