<?xml version="1.0" encoding="UTF-8"?>
<svg width="64px" height="64px" viewBox="0 0 64 64" version="1.1" xmlns="http://www.w3.org/2000/svg" xmlns:xlink="http://www.w3.org/1999/xlink">
    <title>icon-about-open-source</title>
    <g id="icon-about-open-source" stroke="none" stroke-width="1" fill="none" fill-rule="evenodd">
        <path d="M25.5872335,5.74355393 C31.1228957,4.42917028 37.053052,4.86618616 42.3388309,6.98454561 C48.3759217,9.37645698 53.5154274,13.9634558 56.6104338,19.6913663 C59.3857448,24.782101 60.5104964,30.7568754 59.7852255,36.5181459 C59.080455,42.4200843 56.4109705,48.0545869 52.3258502,52.3580257 C49.6524872,55.213641 46.354693,57.4387524 42.784299,59 C40.7963143,53.6651814 38.7318685,48.3581628 36.8336423,42.9899842 C40.0483267,41.3486726 42.4485357,38.1427775 42.8773819,34.5198824 C43.6292479,29.6026197 40.5608367,24.481861 35.9161109,22.7871735 C31.6376219,21.0791419 26.3922898,22.4574656 23.5128147,26.0636806 C20.7341793,29.3624278 20.2150205,34.3464104 22.242898,38.1533415 C23.3033781,40.2744809 25.1323463,41.8991125 27.1862648,43.0239002 C25.1949556,48.3442628 23.2075249,53.6651814 21.2123373,58.982764 C15.7337439,56.6809246 11.0169896,52.6009977 7.96464623,47.486911 C5.38492019,43.1834721 3.96873038,38.1728014 4.00197427,33.1454508 C3.92551332,26.9171404 6.07306876,20.708846 9.90608954,15.8188273 C13.7923005,10.8042646 19.4171671,7.17469756 25.5872335,5.74355393" id="path" stroke="#FE4559" stroke-width="3"></path>
    </g>
</svg>