<?xml version="1.0" encoding="UTF-8"?>
<svg width="145px" height="48px" viewBox="0 0 145 48" version="1.1" xmlns="http://www.w3.org/2000/svg" xmlns:xlink="http://www.w3.org/1999/xlink">
    <title>navbar-brand</title>
    <g id="Page-1" stroke="none" stroke-width="1" fill="none" fill-rule="evenodd">
        <g id="navbar-brand" fill-rule="nonzero">
            <path d="M57.7514123,7.60146735 L57.7514123,18.3624359 L54.8292108,18.3624359 L54.8292108,7.60146735 L52.428831,7.60146735 L52.428831,5.09405723 L60.2561565,5.09405723 L60.2561565,7.60146735 L57.7514123,7.60146735 L57.7514123,7.60146735 Z M68.1878462,13.5565664 L68.1878462,18.3624359 L65.2656447,18.3624359 L65.2656447,13.5565664 L61.9259858,4.98958181 L65.1612804,4.98958181 L66.7267455,10.5267792 L68.2922106,4.98958181 L71.5275051,4.98958181 L68.1878462,13.5565664 L68.1878462,13.5565664 Z M82.590125,9.2730741 C82.590125,10.0044021 82.4857607,10.6312546 82.277032,11.1536317 C82.0683033,11.6760088 81.7552103,12.0939105 81.3377529,12.5118122 C80.9202955,12.9297139 80.5028383,13.1386647 80.0853809,13.2431401 C79.6679235,13.3476156 79.1461018,13.452091 78.6242801,13.452091 L77.3719081,13.452091 L77.3719081,18.2579604 L74.4497066,18.2579604 L74.4497066,5.09405723 L78.6242801,5.09405723 C79.1461018,5.09405723 79.5635592,5.19853265 80.0853809,5.30300807 C80.6072026,5.40748349 81.02466,5.72090975 81.4421174,6.03433603 C81.8595746,6.34776229 82.1726677,6.76566397 82.3813963,7.28804109 C82.4857607,7.81041819 82.590125,8.43727073 82.590125,9.2730741 L82.590125,9.2730741 Z M79.7722879,9.2730741 C79.7722879,8.64622157 79.6679235,8.22831988 79.3548305,8.01936903 C79.0417375,7.70594277 78.7286444,7.60146735 78.3111872,7.60146735 L77.3719081,7.60146735 L77.3719081,11.0491563 L78.3111872,11.0491563 C78.7286444,11.0491563 79.0417375,10.9446809 79.3548305,10.6312546 C79.6679235,10.3178283 79.7722879,9.89992663 79.7722879,9.2730741 L79.7722879,9.2730741 Z M85.6166909,18.3624359 L85.6166909,5.09405723 L92.0872798,5.09405723 L92.0872798,7.70594277 L88.434528,7.70594277 L88.434528,10.3178283 L91.6698226,10.3178283 L91.6698226,12.8252384 L88.434528,12.8252384 L88.434528,15.6460749 L92.1916443,15.6460749 L92.1916443,18.3624359 L85.6166909,18.3624359 L85.6166909,18.3624359 Z M95.8443961,18.3624359 L95.8443961,5.09405723 L98.8709619,5.09405723 L98.8709619,15.6460749 L102.419349,15.6460749 L102.419349,18.4669112 L95.8443961,18.4669112 L95.8443961,18.3624359 Z M105.654644,18.3624359 L105.654644,5.09405723 L112.125233,5.09405723 L112.125233,7.70594277 L108.576845,7.70594277 L108.576845,10.3178283 L111.81214,10.3178283 L111.81214,12.8252384 L108.576845,12.8252384 L108.576845,15.6460749 L112.333962,15.6460749 L112.333962,18.3624359 L105.654644,18.3624359 L105.654644,18.3624359 Z M121.831116,18.3624359 L117.969636,18.3624359 L114.734341,5.09405723 L118.178365,5.09405723 L119.952558,14.8102714 L121.726752,5.09405723 L124.962047,5.09405723 L121.831116,18.3624359 L121.831116,18.3624359 Z M128.092977,18.3624359 L128.092977,5.09405723 L134.563566,5.09405723 L134.563566,7.70594277 L131.015178,7.70594277 L131.015178,10.3178283 L134.250473,10.3178283 L134.250473,12.8252384 L131.015178,12.8252384 L131.015178,15.6460749 L134.772295,15.6460749 L134.772295,18.3624359 L128.092977,18.3624359 L128.092977,18.3624359 Z M138.425047,18.3624359 L138.425047,5.09405723 L141.451612,5.09405723 L141.451612,15.6460749 L145,15.6460749 L145,18.4669112 L138.425047,18.4669112 L138.425047,18.3624359 Z M59.1081487,32.2576669 C58.8994201,31.9442407 58.5863271,31.8397652 58.273234,31.6308143 C57.960141,31.5263389 57.647048,31.4218636 57.333955,31.4218636 C57.0208619,31.4218636 56.7077689,31.5263389 56.394676,31.7352898 C56.0815828,31.9442407 55.9772186,32.2576669 55.9772186,32.780044 C55.9772186,33.1979457 56.0815828,33.511372 56.394676,33.7203228 C56.7077689,33.9292737 57.1252263,34.2426999 57.647048,34.4516508 C57.960141,34.5561262 58.273234,34.7650771 58.5863271,34.9740279 C58.8994201,35.1829788 59.212513,35.3919295 59.5256061,35.7053559 C59.8386991,36.0187821 60.0474278,36.3322084 60.2561565,36.7501101 C60.4648851,37.1680117 60.5692495,37.6903888 60.5692495,38.2127659 C60.5692495,38.9440939 60.4648851,39.5709465 60.2561565,40.0933236 C60.0474278,40.6157007 59.7343347,41.1380778 59.3168774,41.451504 C58.8994201,41.7649303 58.4819627,42.0783566 57.960141,42.2873074 C57.4383193,42.4962582 56.9164976,42.6007337 56.394676,42.6007337 C55.5597612,42.6007337 54.8292108,42.4962582 54.2030248,42.182832 C53.5768387,41.8694057 53.0550171,41.5559794 52.6375597,41.1380778 L54.2030248,38.8396185 C54.5161178,39.1530447 54.8292108,39.3619956 55.2466682,39.5709465 C55.6641256,39.7798972 55.9772186,39.8843727 56.394676,39.8843727 C56.7077689,39.8843727 57.0208619,39.7798972 57.333955,39.5709465 C57.5426836,39.3619956 57.7514123,39.0485694 57.7514123,38.5261923 C57.7514123,38.1082905 57.647048,37.6903888 57.333955,37.4814381 C57.0208619,37.2724872 56.6034046,36.9590608 55.9772186,36.6456346 L54.9335752,36.0187821 C54.6204821,35.8098313 54.3073891,35.6008804 54.0986604,35.2874542 C53.8899317,34.9740279 53.6812032,34.6606017 53.5768387,34.2426999 C53.4724745,33.8247982 53.36811,33.4068966 53.36811,32.780044 C53.36811,32.048716 53.4724745,31.4218636 53.7855674,30.8994865 C53.9942961,30.3771094 54.3073891,29.9592076 54.7248465,29.5413059 C55.1423039,29.2278797 55.5597612,28.9144534 56.0815828,28.8099779 C56.6034046,28.6010272 57.0208619,28.6010272 57.5426836,28.6010272 C58.273234,28.6010272 58.8994201,28.7055026 59.5256061,28.9144534 C60.1517921,29.1234043 60.5692495,29.4368305 60.9867069,29.8547323 L59.1081487,32.2576669 L59.1081487,32.2576669 Z M70.3794973,42.182832 C69.7533114,42.4962582 69.022761,42.7052091 68.0834819,42.7052091 C67.3529316,42.7052091 66.6223812,42.4962582 65.9961951,42.182832 C65.3700091,41.8694057 64.8481873,41.3470286 64.3263656,40.7201761 C63.804544,40.0933236 63.491451,39.3619956 63.2827223,38.5261923 C63.0739936,37.6903888 62.8652649,36.7501101 62.8652649,35.7053559 C62.8652649,34.6606017 62.9696293,33.7203228 63.2827223,32.8845194 C63.491451,32.048716 63.9089084,31.3173881 64.3263656,30.6905356 C64.743823,30.063683 65.3700091,29.6457814 65.9961951,29.2278797 C66.6223812,28.9144534 67.3529316,28.7055026 68.0834819,28.7055026 C69.022761,28.7055026 69.7533114,28.9144534 70.2751331,29.2278797 C70.7969547,29.5413059 71.3187764,29.9592076 71.7362338,30.3771094 L70.1707686,32.5710932 C69.9620399,32.2576669 69.648947,32.048716 69.4402183,31.8397652 C69.2314896,31.6308143 68.8140323,31.5263389 68.3965749,31.5263389 C67.9791175,31.5263389 67.6660245,31.6308143 67.3529316,31.8397652 C67.0398384,32.048716 66.8311099,32.3621423 66.6223812,32.6755686 C66.4136525,33.0934703 66.3092881,33.511372 66.2049238,34.0337491 C66.1005595,34.5561262 66.1005595,35.0785033 66.1005595,35.7053559 C66.1005595,36.3322084 66.1005595,36.8545855 66.2049238,37.2724872 C66.3092881,37.7948643 66.4136525,38.2127659 66.6223812,38.6306676 C66.8311099,39.0485694 67.0398384,39.2575201 67.3529316,39.466471 C67.6660245,39.6754219 67.9791175,39.7798972 68.3965749,39.7798972 C68.8140323,39.7798972 69.1271253,39.6754219 69.4402183,39.466471 C69.7533114,39.2575201 69.9620399,39.0485694 70.1707686,38.735143 L71.8405981,40.8246514 C71.5275051,41.451504 71.0056834,41.8694057 70.3794973,42.182832 L70.3794973,42.182832 Z M80.6072026,42.3917829 L80.0853809,39.9888481 L77.0588151,39.9888481 L76.5369933,42.3917829 L73.5104275,42.3917829 L76.745722,29.1234043 L80.5028383,29.1234043 L83.7381328,42.3917829 L80.6072026,42.3917829 L80.6072026,42.3917829 Z M78.6242801,31.9442407 L77.3719081,37.5859134 L79.6679235,37.5859134 L78.6242801,31.9442407 L78.6242801,31.9442407 Z M86.7646985,42.3917829 L86.7646985,29.1234043 L89.7912644,29.1234043 L89.7912644,39.6754219 L93.3396519,39.6754219 L93.3396519,42.4962582 L86.7646985,42.4962582 L86.7646985,42.3917829 Z M102.523714,42.3917829 L102.001892,39.9888481 L98.9753263,39.9888481 L98.4535045,42.3917829 L95.4269387,42.3917829 L98.6622332,29.1234043 L102.419349,29.1234043 L105.654644,42.3917829 L102.523714,42.3917829 L102.523714,42.3917829 Z M100.436427,31.9442407 L99.1840549,37.5859134 L101.48007,37.5859134 L100.436427,31.9442407 L100.436427,31.9442407 Z" id="path" fill="#21303F"></path>
            <polygon id="path" fill="#FE4559" points="20.7745963 48 0 35.862069 0 12.137931 20.7745963 0 41.5491926 12.137931 41.5491926 35.862069"></polygon>
            <polygon id="path" fill="#FF6169" points="13.6204307 29.5172414 13.6204307 35.0344828 26.5529609 27.4482759 26.5529609 21.9310345"></polygon>
            <polygon id="path" fill="#FF6169" points="18.4357345 26.7586207 13.6204307 24 26.5529609 16.4137931 31.3682646 19.1724138"></polygon>
            <polygon id="path" fill="#FF6169" points="13.6204307 18.4827586 8.80512691 15.7241379 21.7376571 8.13793103 26.5529609 10.8965517"></polygon>
            <polygon id="path" fill="#FFB4B5" points="18.4357345 26.7586207 18.4357345 32.2758621 31.3682646 24.6896552 31.3682646 19.1724138"></polygon>
            <polygon id="path" fill="#FFB4B5" points="13.6204307 18.4827586 13.6204307 24 26.5529609 16.4137931 26.5529609 10.8965517"></polygon>
            <polygon id="path" fill="#FFFFFF" points="8.80512691 32.2758621 13.6204307 35.0344828 13.6204307 29.5172414 18.4357345 32.2758621 18.4357345 26.7586207 13.6204307 24 13.6204307 18.4827586 8.80512691 15.7241379"></polygon>
        </g>
    </g>
</svg>