<svg xmlns="http://www.w3.org/2000/svg" viewBox="0 0 1000 296"><defs><style>.cls-1{fill:#fff;}.cls-2{fill:#591ab2;}.cls-3{fill:#f0e8fc;}.cls-4{fill:#2e2e2e;}</style></defs><g id="Lag_2" data-name="Lag 2"><g id="Lag_1-2" data-name="Lag 1"><path class="cls-1" d="M151.68,261a17,17,0,0,1-2.51-.18L14.4,241.9A16.8,16.8,0,0,1,0,225.36v-105a16.7,16.7,0,0,1,7.13-13.67l66-46.27a16.56,16.56,0,0,1,4.22-2.22,17.76,17.76,0,0,1,1.93-.55l60-14.16c.52-.13,1-.23,1.52-.31l.63-.07,1-.09.88,0a16.76,16.76,0,0,1,10.49,3.72l67,54.28a15.76,15.76,0,0,1,2.42,2.41,2.86,2.86,0,0,1,.29.36c.17.21.32.41.46.62a16.53,16.53,0,0,1,1.33,2.26,7.77,7.77,0,0,1,.34.73,4.22,4.22,0,0,1,.18.45,16.66,16.66,0,0,1,1.17,5.68v109a16.67,16.67,0,0,1-4.12,11l-.12.13a16.25,16.25,0,0,1-2.41,2.21,16.87,16.87,0,0,1-4.42,2.4l-58.38,21.74-.3.11A16.72,16.72,0,0,1,151.68,261Z"/><path class="cls-2" d="M216,111.45h0s0,0,0,0h0s0,0,0,0h0a5.74,5.74,0,0,0-.64-1.1h0s0,0,0,0h0a0,0,0,0,0,0,0h0a5.85,5.85,0,0,0-1-1L147.27,54.83A6.26,6.26,0,0,0,143,53.44l-.59.06h0c-.2,0-.39.07-.59.12L81.63,67.82q-.39.09-.75.21a6.22,6.22,0,0,0-1.61.86L13.13,115.24a6.25,6.25,0,0,0-2.67,5.13v105a6.27,6.27,0,0,0,5.4,6.2l134.83,18.93a6.5,6.5,0,0,0,1,.07,6.24,6.24,0,0,0,2.15-.37l.06,0,58.43-21.77a6.2,6.2,0,0,0,1.72-.92,7,7,0,0,0,.94-.86,6.28,6.28,0,0,0,1.56-4.12V114h0v0h0v0h0v0h0v0A6.38,6.38,0,0,0,216,111.45ZM145.41,237.1,23,219.92v-96.3L82.65,81.83l62.76,52.76Zm7.72-112.4L96.57,77.15,141.75,66.5l55.38,44.89Z"/><polygon class="cls-3" points="197.13 111.39 153.13 124.7 96.57 77.15 141.75 66.5 197.13 111.39"/><path class="cls-1" d="M82.65,81.83,23,123.62v96.3l122.4,17.18V134.59Zm22.32,102c-8.35,8.57-25.49,17.85-25.49,17.85S61.37,188,55.23,178.36c-9.46-14.82-5-29.53,5.29-32.56,10.15-3,19.18,6.27,20.22,14.26,2.14-8,14.75-16.08,23.35-12.1C118.43,154.59,116.25,172.32,105,183.87Z"/><path class="cls-2" d="M105,183.87c-8.35,8.57-25.49,17.85-25.49,17.85S61.37,188,55.23,178.36c-9.46-14.82-5-29.53,5.29-32.56,10.15-3,19.18,4.31,20.22,12.31,2.14-8,14.75-14.13,23.35-10.15C118.43,154.59,116.25,172.32,105,183.87Z"/><path class="cls-4" d="M376.14,31.22l-13.51,20a25.73,25.73,0,0,0-9.1-6.29,27.48,27.48,0,0,0-11.29-2.41q-10.42,0-16,6.75t-5.58,19.06V84.93H346.8v24.31H320.66V232.09H294.09V109.24H270V84.93h24.09V68q0-24.13,12.33-37.5T339.89,17Q363.06,17,376.14,31.22Z"/><path class="cls-4" d="M467.17,84.93v19.38c-5.68-8.21-12.83-11.88-21.44-16.39a61.86,61.86,0,0,0-29.06-6.75,65.23,65.23,0,0,0-35.82,10.21,69.67,69.67,0,0,0-25.11,27.75q-8.94,17.55-8.95,39.15,0,33.16,20.11,55.37,20.27,22.2,49.77,22.2a58.73,58.73,0,0,0,28.92-7.06c8.6-4.8,15.8-8.72,21.58-17.12v20.42h26.71V84.93ZM453.81,195.19q-13.35,15.17-33.33,15.16T387,195.19q-13.35-15.3-13.36-36.91,0-21.89,13.36-36.75t33.47-14.84q20.13,0,33.33,14.84t13.36,36.75Q467.17,179.9,453.81,195.19Z"/><path class="cls-4" d="M973,84.93,932,199.85,883.88,84.93H854.8c0,106.11-15.12,122-24.13,122-6.44,0-16.55-10-26.26-31.94.45-1,.89-2,1.35-3C819,142.14,826.91,103.56,826.91,68.8c0-17.72-2.18-33-6.29-44.17C812.72,3.19,799,0,791.58,0c-7.67,0-21.72,3.11-29.66,24-4.13,10.85-6.22,25.39-6.22,43.23,0,32.54,7.1,72.4,18.51,104l.85,2.32c-10.45,18.48-24.11,31.71-40.61,31.71V142.09q0-28.22-15-44.56T679.4,81.17q-16.74,0-28.77,8.12c-7.93,5.39-14,10-18.06,19.07-4.4-9.51-10.77-14.18-19.08-19.38s-17.91-7.81-29.07-7.81a48.87,48.87,0,0,0-24.22,6c-7.14,3.91-12.92,6.63-17.32,13.54V84.93H516.16V232.09h26.72V146.43q0-18.3,9.24-28.95,9.25-10.8,25.4-10.79t25.25,10.79q9.26,10.65,9.25,29v85.66h26.57V146.43q0-18.3,9.25-28.95,9.39-10.8,25.54-10.79,15.86,0,25.1,10.79t9.25,29v85.66h26.72v0c20.5,0,38.77-10.25,53.86-30,12.28,20.74,26.64,31.53,42.36,31.53,20.93,0,35.35-15.92,42.85-47.3,2.86-11.95,4.92-26.53,6.22-44.42l40.25,92-4.55,12.6q-4.7,13.22-10.13,18.6a18.35,18.35,0,0,1-13.5,5.4,31.25,31.25,0,0,1-22.61-9.15L856.58,282.5a49.71,49.71,0,0,0,16,9.91A51,51,0,0,0,891.22,296q32.73,0,46.54-39.9L1000,84.93ZM793.17,125.6c-.68,2.83-1.41,5.68-2.23,8.52-5.42-22.37-8.55-46.24-8.55-66.87,0-18.16,2.43-28.36,4.47-33.73,1.47-3.86,3.34-6.6,4.59-6.78,1.59,1.06,6.91,8.61,8.39,30.59C801.22,77.51,798.78,102.4,793.17,125.6Z"/></g></g></svg>