<?xml version="1.0" encoding="UTF-8" standalone="no"?>
<!DOCTYPE svg PUBLIC "-//W3C//DTD SVG 1.1//EN" "http://www.w3.org/Graphics/SVG/1.1/DTD/svg11.dtd">
<svg width="100%" height="100%" viewBox="0 0 3500 700" version="1.1" xmlns="http://www.w3.org/2000/svg" xmlns:xlink="http://www.w3.org/1999/xlink" xml:space="preserve" xmlns:serif="http://www.serif.com/" style="fill-rule:evenodd;clip-rule:evenodd;stroke-linejoin:round;stroke-miterlimit:2;">
    <g transform="matrix(1,0,0,1,-301.516692,-528)">
        <g id="light">
            <g id="frame" transform="matrix(0.998858,0,0,0.856793,-153.96276,28.489596)">
                <rect x="456" y="583" width="3504" height="817" style="fill:none;"/>
            </g>
            <g id="logo" transform="matrix(1,0,0,1,5,-24.642964)">
                <g id="pill">
                    <g id="background" transform="matrix(0.61186,0,0,0.61186,50.924399,209.711429)">
                        <path d="M1381.626,682C1398.964,682 1415.592,688.888 1427.852,701.148C1440.112,713.408 1447,730.036 1447,747.374L1447,1517.626C1447,1534.964 1440.112,1551.592 1427.852,1563.852C1415.592,1576.112 1398.964,1583 1381.626,1583L611.374,1583C594.036,1583 577.408,1576.112 565.148,1563.852C552.888,1551.592 546,1534.964 546,1517.626L546,747.374C546,730.036 552.888,713.408 565.148,701.148C577.408,688.888 594.036,682 611.374,682L1381.626,682Z"/>
                    </g>
                    <g transform="matrix(0.214509,0,0,0.214509,564.230461,713.972209)">
                        <g transform="matrix(-0.628719,0.629146,-0.640149,-0.639714,1718.324604,969.092274)">
                            <path d="M102.235,105.37L1894.669,1897.803L102.235,1897.803L102.235,105.37Z" style="fill:white;"/>
                        </g>
                        <g transform="matrix(1,-0,0,1,0.051917,-0.124962)">
                            <g transform="matrix(0.706867,-0.707347,0.707347,0.706867,-211.191519,927.490253)">
                                <g transform="matrix(-1.639804,0,0,-1.576355,1271.553818,3171.765423)">
                                    <path d="M583.12,1107.19L585.5,1107.184C856.004,1107.184 1075.629,1336.739 1075.629,1619.5C1075.629,1622.16 1073.557,1624.316 1071,1624.316L583.137,1624.316C580.58,1624.316 578.507,1622.16 578.507,1619.5L578.507,1112.006C578.507,1109.355 580.567,1107.203 583.115,1107.19L583.12,1107.19Z" style="fill:white;"/>
                                </g>
                                <g transform="matrix(1.639804,0,0,1.576355,-640.907047,-1934.047385)">
                                    <path d="M583.12,1107.19L585.5,1107.184C856.004,1107.184 1075.629,1336.739 1075.629,1619.5C1075.629,1622.16 1073.557,1624.316 1071,1624.316L583.137,1624.316C580.58,1624.316 578.507,1622.16 578.507,1619.5L578.507,1112.006C578.507,1109.355 580.567,1107.203 583.115,1107.19L583.12,1107.19Z" style="fill:white;"/>
                                </g>
                            </g>
                            <g transform="matrix(1,-0,0,1,10.042247,-199.550533)">
                                <g transform="matrix(0.707107,-0.707107,0.707107,0.707107,-90.819019,1326.938394)">
                                    <g transform="matrix(0.016235,28.571424,-24.999996,0.014206,27689.99064,-25351.980503)">
                                        <rect x="872" y="1092" width="28" height="8" style="fill:rgb(128,128,128);"/>
                                    </g>
                                    <g transform="matrix(0.016235,28.571424,-24.999996,0.014206,27656.990645,-25351.961751)">
                                        <rect x="872" y="1092" width="28" height="8"/>
                                    </g>
                                </g>
                                <g transform="matrix(0.707107,-0.707107,0.707107,0.707107,-739.033075,1342.639797)">
                                    <g transform="matrix(0.960384,0,-0,10,-24.494447,-10228.024464)">
                                        <rect x="902" y="1102" width="833" height="20" style="fill:rgb(128,128,128);"/>
                                    </g>
                                    <g transform="matrix(0.960384,0,-0,10,-24.424112,-10195.024614)">
                                        <rect x="902" y="1102" width="833" height="20"/>
                                    </g>
                                </g>
                            </g>
                        </g>
                    </g>
                </g>
                <g id="text" transform="matrix(0.61186,0,0,0.61186,50.924399,184.963628)">
                    <g transform="matrix(699.419223,0,0,699.419223,1549,1370)">
                        <path d="M0.062,-0L0.062,-0.546L0.209,-0.546L0.209,-0L0.062,-0ZM0.136,-0.617C0.114,-0.617 0.095,-0.625 0.079,-0.639C0.063,-0.654 0.056,-0.672 0.056,-0.692C0.056,-0.713 0.063,-0.731 0.079,-0.746C0.095,-0.76 0.114,-0.768 0.136,-0.768C0.158,-0.768 0.177,-0.76 0.193,-0.746C0.208,-0.731 0.216,-0.714 0.216,-0.692C0.216,-0.672 0.208,-0.654 0.193,-0.639C0.177,-0.625 0.158,-0.617 0.136,-0.617Z" style="fill-rule:nonzero;"/>
                    </g>
                    <g transform="matrix(699.419223,0,0,699.419223,1738.675657,1370)">
                        <path d="M0.209,-0.316L0.209,-0L0.062,-0L0.062,-0.546L0.201,-0.546L0.203,-0.41L0.194,-0.41C0.209,-0.455 0.23,-0.49 0.259,-0.515C0.289,-0.54 0.326,-0.553 0.372,-0.553C0.41,-0.553 0.443,-0.545 0.471,-0.528C0.499,-0.512 0.521,-0.488 0.537,-0.457C0.552,-0.427 0.56,-0.39 0.56,-0.347L0.56,-0L0.414,-0L0.414,-0.322C0.414,-0.356 0.405,-0.382 0.387,-0.401C0.37,-0.421 0.346,-0.43 0.315,-0.43C0.294,-0.43 0.276,-0.426 0.26,-0.417C0.244,-0.408 0.231,-0.395 0.222,-0.378C0.213,-0.361 0.209,-0.34 0.209,-0.316Z" style="fill-rule:nonzero;"/>
                    </g>
                    <g transform="matrix(699.419223,0,0,699.419223,2174.035902,1370)">
                        <path d="M0.062,0.204L0.062,-0.546L0.206,-0.546L0.206,-0.454L0.214,-0.454C0.22,-0.469 0.23,-0.483 0.242,-0.499C0.255,-0.514 0.271,-0.527 0.292,-0.537C0.312,-0.548 0.338,-0.553 0.369,-0.553C0.41,-0.553 0.447,-0.542 0.48,-0.521C0.513,-0.501 0.54,-0.469 0.56,-0.428C0.58,-0.386 0.591,-0.334 0.591,-0.272C0.591,-0.211 0.581,-0.16 0.561,-0.118C0.542,-0.077 0.515,-0.045 0.482,-0.023C0.448,-0.002 0.41,0.009 0.368,0.009C0.339,0.009 0.314,0.004 0.293,-0.006C0.273,-0.016 0.256,-0.028 0.243,-0.043C0.23,-0.058 0.22,-0.073 0.214,-0.087L0.209,-0.087L0.209,0.204L0.062,0.204ZM0.323,-0.108C0.349,-0.108 0.37,-0.115 0.388,-0.129C0.405,-0.143 0.418,-0.163 0.427,-0.187C0.436,-0.212 0.44,-0.241 0.44,-0.272C0.44,-0.304 0.436,-0.333 0.427,-0.357C0.418,-0.382 0.405,-0.401 0.388,-0.415C0.37,-0.428 0.349,-0.435 0.323,-0.435C0.298,-0.435 0.277,-0.429 0.259,-0.415C0.242,-0.402 0.228,-0.383 0.219,-0.359C0.21,-0.334 0.206,-0.306 0.206,-0.272C0.206,-0.24 0.21,-0.211 0.219,-0.186C0.229,-0.162 0.242,-0.143 0.26,-0.129C0.277,-0.115 0.298,-0.108 0.323,-0.108Z" style="fill-rule:nonzero;"/>
                    </g>
                    <g transform="matrix(699.419223,0,0,699.419223,2614.833428,1370)">
                        <path d="M0.25,0.007C0.213,0.007 0.18,-0.001 0.151,-0.018C0.123,-0.034 0.101,-0.058 0.086,-0.089C0.07,-0.119 0.062,-0.156 0.062,-0.199L0.062,-0.546L0.209,-0.546L0.209,-0.224C0.209,-0.19 0.218,-0.164 0.235,-0.144C0.253,-0.125 0.277,-0.116 0.308,-0.116C0.329,-0.116 0.347,-0.12 0.363,-0.129C0.379,-0.138 0.391,-0.151 0.4,-0.168C0.409,-0.185 0.414,-0.206 0.414,-0.23L0.414,-0.546L0.56,-0.546L0.56,-0L0.422,-0L0.42,-0.136L0.428,-0.136C0.414,-0.09 0.392,-0.055 0.363,-0.03C0.333,-0.006 0.296,0.007 0.25,0.007Z" style="fill-rule:nonzero;"/>
                    </g>
                    <g transform="matrix(699.419223,0,0,699.419223,3050.350777,1370)">
                        <path d="M0.334,-0.546L0.334,-0.434L0.01,-0.434L0.01,-0.546L0.334,-0.546ZM0.085,-0.676L0.231,-0.676L0.231,-0.16C0.231,-0.142 0.235,-0.13 0.243,-0.121C0.251,-0.113 0.263,-0.109 0.281,-0.109C0.287,-0.109 0.295,-0.11 0.305,-0.111C0.315,-0.112 0.322,-0.114 0.328,-0.115L0.349,-0.005C0.332,-0 0.316,0.003 0.3,0.005C0.284,0.007 0.269,0.008 0.254,0.008C0.199,0.008 0.157,-0.006 0.128,-0.032C0.099,-0.059 0.085,-0.097 0.085,-0.147L0.085,-0.676Z" style="fill-rule:nonzero;"/>
                    </g>
                    <g transform="matrix(699.419223,0,0,699.419223,3306.457314,1370)">
                    </g>
                    <g transform="matrix(699.419223,0,0,699.419223,3472.188146,1370)">
                        <path d="M0.307,0.011C0.252,0.011 0.205,-0.001 0.165,-0.025C0.125,-0.048 0.094,-0.081 0.072,-0.123C0.051,-0.165 0.04,-0.215 0.04,-0.271C0.04,-0.327 0.051,-0.376 0.072,-0.419C0.094,-0.461 0.125,-0.494 0.165,-0.517C0.205,-0.541 0.252,-0.553 0.307,-0.553C0.362,-0.553 0.409,-0.541 0.449,-0.517C0.489,-0.494 0.52,-0.461 0.541,-0.419C0.563,-0.376 0.574,-0.327 0.574,-0.271C0.574,-0.215 0.563,-0.165 0.541,-0.123C0.52,-0.081 0.489,-0.048 0.449,-0.025C0.409,-0.001 0.362,0.011 0.307,0.011ZM0.307,-0.105C0.333,-0.105 0.355,-0.112 0.372,-0.126C0.39,-0.141 0.403,-0.161 0.411,-0.186C0.42,-0.211 0.425,-0.239 0.425,-0.271C0.425,-0.303 0.42,-0.332 0.411,-0.357C0.403,-0.382 0.39,-0.402 0.372,-0.416C0.355,-0.43 0.333,-0.437 0.307,-0.437C0.281,-0.437 0.259,-0.43 0.241,-0.416C0.224,-0.402 0.211,-0.382 0.202,-0.357C0.193,-0.332 0.189,-0.303 0.189,-0.271C0.189,-0.239 0.193,-0.211 0.202,-0.186C0.211,-0.161 0.224,-0.141 0.241,-0.126C0.259,-0.112 0.281,-0.105 0.307,-0.105Z" style="fill-rule:nonzero;"/>
                    </g>
                    <g transform="matrix(699.419223,0,0,699.419223,3901.155772,1370)">
                        <path d="M0.368,0.009C0.339,0.009 0.314,0.004 0.293,-0.006C0.273,-0.016 0.256,-0.028 0.243,-0.043C0.23,-0.058 0.22,-0.073 0.214,-0.087L0.206,-0.087L0.206,-0L0.062,-0L0.062,-0.728L0.209,-0.728L0.209,-0.454L0.214,-0.454C0.22,-0.469 0.23,-0.483 0.242,-0.499C0.255,-0.514 0.271,-0.527 0.292,-0.537C0.312,-0.548 0.338,-0.553 0.369,-0.553C0.41,-0.553 0.447,-0.542 0.48,-0.521C0.513,-0.501 0.54,-0.469 0.56,-0.428C0.58,-0.386 0.591,-0.334 0.591,-0.272C0.591,-0.211 0.581,-0.16 0.561,-0.118C0.542,-0.077 0.515,-0.045 0.482,-0.023C0.448,-0.002 0.41,0.009 0.368,0.009ZM0.323,-0.108C0.349,-0.108 0.37,-0.115 0.388,-0.129C0.405,-0.143 0.418,-0.163 0.427,-0.187C0.436,-0.212 0.44,-0.241 0.44,-0.272C0.44,-0.304 0.436,-0.333 0.427,-0.357C0.418,-0.382 0.405,-0.401 0.388,-0.415C0.37,-0.428 0.349,-0.435 0.323,-0.435C0.298,-0.435 0.277,-0.429 0.259,-0.415C0.242,-0.402 0.228,-0.383 0.219,-0.359C0.21,-0.334 0.206,-0.306 0.206,-0.272C0.206,-0.24 0.21,-0.211 0.219,-0.186C0.229,-0.162 0.242,-0.143 0.26,-0.129C0.277,-0.115 0.298,-0.108 0.323,-0.108Z" style="fill-rule:nonzero;"/>
                    </g>
                    <g transform="matrix(699.419223,0,0,699.419223,4341.953298,1370)">
                        <path d="M0.062,-0.546L0.209,-0.546L0.209,0.028C0.209,0.069 0.201,0.103 0.185,0.129C0.168,0.155 0.145,0.174 0.115,0.186C0.084,0.198 0.048,0.204 0.005,0.204L-0.024,0.204L-0.024,0.089L-0.005,0.089C0.02,0.089 0.037,0.084 0.047,0.073C0.057,0.062 0.062,0.047 0.062,0.026L0.062,-0.546ZM0.136,-0.617C0.114,-0.617 0.095,-0.625 0.079,-0.639C0.063,-0.654 0.056,-0.672 0.056,-0.692C0.056,-0.713 0.063,-0.731 0.079,-0.746C0.095,-0.76 0.114,-0.768 0.136,-0.768C0.158,-0.768 0.177,-0.76 0.193,-0.746C0.208,-0.731 0.216,-0.714 0.216,-0.692C0.216,-0.672 0.208,-0.654 0.193,-0.639C0.177,-0.625 0.158,-0.617 0.136,-0.617Z" style="fill-rule:nonzero;"/>
                    </g>
                    <g transform="matrix(699.419223,0,0,699.419223,4531.628956,1370)">
                        <path d="M0.309,0.011C0.254,0.011 0.206,-0.001 0.165,-0.024C0.125,-0.046 0.094,-0.079 0.072,-0.121C0.051,-0.163 0.04,-0.213 0.04,-0.27C0.04,-0.326 0.05,-0.376 0.072,-0.418C0.093,-0.46 0.124,-0.493 0.163,-0.517C0.203,-0.541 0.249,-0.553 0.302,-0.553C0.338,-0.553 0.371,-0.547 0.402,-0.536C0.433,-0.524 0.46,-0.507 0.483,-0.484C0.507,-0.461 0.525,-0.433 0.538,-0.398C0.551,-0.363 0.558,-0.323 0.558,-0.276L0.558,-0.235L0.1,-0.235L0.1,-0.327L0.487,-0.327L0.418,-0.302C0.418,-0.331 0.414,-0.355 0.405,-0.376C0.396,-0.397 0.384,-0.414 0.367,-0.425C0.349,-0.437 0.328,-0.442 0.303,-0.442C0.278,-0.442 0.256,-0.437 0.239,-0.425C0.221,-0.413 0.207,-0.397 0.198,-0.377C0.189,-0.357 0.184,-0.334 0.184,-0.309L0.184,-0.244C0.184,-0.212 0.19,-0.186 0.2,-0.164C0.211,-0.143 0.226,-0.127 0.245,-0.116C0.264,-0.105 0.286,-0.1 0.312,-0.1C0.329,-0.1 0.344,-0.102 0.358,-0.107C0.372,-0.112 0.384,-0.119 0.394,-0.129C0.404,-0.138 0.412,-0.15 0.417,-0.164L0.55,-0.139C0.541,-0.109 0.526,-0.083 0.504,-0.06C0.482,-0.038 0.455,-0.02 0.422,-0.008C0.389,0.004 0.352,0.011 0.309,0.011Z" style="fill-rule:nonzero;"/>
                    </g>
                    <g transform="matrix(699.419223,0,0,699.419223,4948.247491,1370)">
                        <path d="M0.306,0.011C0.252,0.011 0.204,-0.001 0.164,-0.025C0.125,-0.048 0.094,-0.081 0.072,-0.123C0.051,-0.165 0.04,-0.215 0.04,-0.271C0.04,-0.327 0.051,-0.376 0.072,-0.419C0.094,-0.461 0.125,-0.494 0.164,-0.517C0.204,-0.541 0.252,-0.553 0.306,-0.553C0.339,-0.553 0.369,-0.549 0.396,-0.54C0.423,-0.532 0.448,-0.52 0.469,-0.504C0.49,-0.488 0.507,-0.469 0.521,-0.447C0.535,-0.424 0.544,-0.399 0.549,-0.371L0.413,-0.346C0.41,-0.36 0.405,-0.373 0.399,-0.384C0.393,-0.395 0.386,-0.405 0.377,-0.413C0.368,-0.421 0.358,-0.427 0.346,-0.431C0.335,-0.435 0.322,-0.437 0.308,-0.437C0.282,-0.437 0.26,-0.43 0.242,-0.416C0.225,-0.402 0.211,-0.383 0.202,-0.358C0.193,-0.333 0.189,-0.304 0.189,-0.271C0.189,-0.239 0.193,-0.21 0.202,-0.185C0.211,-0.16 0.225,-0.14 0.242,-0.126C0.26,-0.112 0.282,-0.105 0.308,-0.105C0.322,-0.105 0.335,-0.107 0.347,-0.111C0.359,-0.115 0.369,-0.122 0.378,-0.13C0.387,-0.138 0.395,-0.148 0.401,-0.16C0.407,-0.172 0.411,-0.185 0.414,-0.2L0.55,-0.175C0.545,-0.146 0.536,-0.12 0.522,-0.097C0.508,-0.075 0.491,-0.055 0.47,-0.039C0.449,-0.023 0.424,-0.011 0.397,-0.002C0.369,0.006 0.339,0.011 0.306,0.011Z" style="fill-rule:nonzero;"/>
                    </g>
                    <g transform="matrix(699.419223,0,0,699.419223,5359.804672,1370)">
                        <path d="M0.334,-0.546L0.334,-0.434L0.01,-0.434L0.01,-0.546L0.334,-0.546ZM0.085,-0.676L0.231,-0.676L0.231,-0.16C0.231,-0.142 0.235,-0.13 0.243,-0.121C0.251,-0.113 0.263,-0.109 0.281,-0.109C0.287,-0.109 0.295,-0.11 0.305,-0.111C0.315,-0.112 0.322,-0.114 0.328,-0.115L0.349,-0.005C0.332,-0 0.316,0.003 0.3,0.005C0.284,0.007 0.269,0.008 0.254,0.008C0.199,0.008 0.157,-0.006 0.128,-0.032C0.099,-0.059 0.085,-0.097 0.085,-0.147L0.085,-0.676Z" style="fill-rule:nonzero;"/>
                    </g>
                    <g transform="matrix(699.419223,0,0,699.419223,5610.78851,1370)">
                        <path d="M0.279,0.011C0.235,0.011 0.196,0.004 0.163,-0.008C0.129,-0.021 0.101,-0.039 0.08,-0.063C0.058,-0.087 0.044,-0.115 0.038,-0.149L0.174,-0.173C0.182,-0.147 0.194,-0.128 0.212,-0.116C0.23,-0.103 0.254,-0.097 0.284,-0.097C0.311,-0.097 0.334,-0.102 0.35,-0.113C0.366,-0.123 0.374,-0.137 0.374,-0.153C0.374,-0.167 0.368,-0.179 0.357,-0.188C0.345,-0.197 0.328,-0.204 0.303,-0.209L0.209,-0.229C0.157,-0.239 0.118,-0.258 0.091,-0.284C0.065,-0.309 0.052,-0.343 0.052,-0.384C0.052,-0.418 0.062,-0.449 0.081,-0.474C0.1,-0.499 0.127,-0.519 0.161,-0.532C0.195,-0.546 0.236,-0.553 0.282,-0.553C0.325,-0.553 0.362,-0.547 0.394,-0.535C0.425,-0.523 0.451,-0.506 0.47,-0.484C0.49,-0.463 0.503,-0.437 0.509,-0.407L0.379,-0.384C0.374,-0.403 0.363,-0.418 0.347,-0.43C0.332,-0.442 0.31,-0.448 0.284,-0.448C0.26,-0.448 0.24,-0.443 0.223,-0.432C0.207,-0.422 0.199,-0.409 0.199,-0.392C0.199,-0.379 0.204,-0.367 0.215,-0.358C0.225,-0.348 0.243,-0.341 0.269,-0.335L0.367,-0.316C0.42,-0.305 0.459,-0.288 0.485,-0.263C0.511,-0.239 0.524,-0.207 0.524,-0.168C0.524,-0.133 0.513,-0.101 0.492,-0.074C0.471,-0.048 0.443,-0.027 0.406,-0.012C0.369,0.003 0.327,0.011 0.279,0.011Z" style="fill-rule:nonzero;"/>
                    </g>
                    <g transform="matrix(699.419223,0,0,699.419223,6002.646769,1370)">
                    </g>
                </g>
            </g>
        </g>
    </g>
</svg>
