<?xml version="1.0" encoding="UTF-8" standalone="no"?>
<!-- Generator: Adobe Illustrator 27.8.1, SVG Export Plug-In . SVG Version: 6.00 Build 0)  -->

<svg
   version="1.1"
   id="Groupe_1_00000086678831617719511780000012381641848020841858_"
   x="0px"
   y="0px"
   viewBox="0 0 512 123"
   xml:space="preserve"
   width="512"
   height="123"
   xmlns="http://www.w3.org/2000/svg"
   xmlns:svg="http://www.w3.org/2000/svg"><defs
   id="defs938" />
<style
   type="text/css"
   id="style893">
	.st0{fill:#1ED760;}
</style>









<g
   id="g1372"
   transform="matrix(0.99999673,3.7142374e-5,0,0.99999994,-0.02051224,-2.6153317)"><g
     id="g1343"
     transform="translate(-12.909062,1.0891918)"><g
       id="g1954"
       transform="matrix(0.16123016,-2.7600974e-8,0,0.16048704,10.853735,1.2812224)"><g
         id="R">
	<path
   class="st0"
   d="m 3128.08,357.49 c -6.1,-3.43 -10.86,-8.19 -14.3,-14.27 -3.44,-6.08 -5.15,-12.89 -5.15,-20.44 0,-7.65 1.72,-14.51 5.15,-20.59 3.43,-6.08 8.2,-10.83 14.3,-14.27 6.1,-3.43 12.92,-5.15 20.47,-5.15 7.55,0 14.37,1.72 20.47,5.15 6.1,3.43 10.86,8.19 14.3,14.27 3.43,6.08 5.15,12.94 5.15,20.59 0,7.55 -1.72,14.36 -5.15,20.44 -3.44,6.08 -8.2,10.83 -14.3,14.27 -6.1,3.43 -12.92,5.15 -20.47,5.15 -7.55,-0.01 -14.37,-1.72 -20.47,-5.15 z m 37.16,-6.33 c 4.94,-2.84 8.78,-6.74 11.54,-11.69 2.76,-4.95 4.14,-10.56 4.14,-16.84 0,-6.27 -1.38,-11.89 -4.14,-16.84 -2.76,-4.95 -6.6,-8.82 -11.54,-11.62 -4.94,-2.79 -10.5,-4.19 -16.69,-4.19 -6.29,0 -11.88,1.4 -16.77,4.19 -4.89,2.79 -8.71,6.67 -11.47,11.62 -2.76,4.95 -4.14,10.57 -4.14,16.84 0,6.28 1.38,11.89 4.14,16.84 2.76,4.95 6.58,8.85 11.47,11.69 4.89,2.84 10.47,4.26 16.77,4.26 6.19,0.01 11.76,-1.41 16.69,-4.26 z m -31.79,-47.94 h 17.56 c 4.94,0 8.69,0.98 11.25,2.94 2.56,1.96 3.85,4.71 3.85,8.24 0,2.55 -0.82,4.73 -2.47,6.54 -1.65,1.82 -4.06,3.07 -7.26,3.75 l 11.61,15.29 h -10.89 l -10.74,-14.27 h -3.92 v 14.27 h -9 v -36.76 z m 23.37,11.32 c 0,-2.94 -2.32,-4.41 -6.97,-4.41 h -7.4 v 8.53 h 7.26 c 4.74,0 7.11,-1.37 7.11,-4.12 z"
   id="path930" />
</g><g
         id="g350"
         transform="matrix(6.0119873,0,0,6.9344189,-64.751946,-9.8295927)"
         style="fill:#1ed760;fill-opacity:1"><g
           id="g1315"
           transform="matrix(0.99701583,0,0,1,0.4896632,0)"
           style="fill:#1ed760;fill-opacity:1"><g
             id="S-6"
             transform="matrix(0.16667713,0,0,0.14448324,10.768935,1.2938069)"
             style="fill:#1ed760;fill-opacity:1">
	<g
   id="g4"
   style="fill:#1ed760;fill-opacity:1">
		<path
   d="m 1240.48,395.06 c -21.51,-21.94 -52.67,-38.19 -93.49,-48.72 l -38.85,-10.53 c -25.46,-6.58 -44.44,-12.61 -56.95,-18.11 -12.51,-5.48 -20.85,-11.19 -25.02,-17.12 -4.18,-5.93 -6.25,-13.27 -6.25,-22.06 0,-14.48 7.24,-26.77 21.73,-36.87 14.48,-10.09 35.55,-15.14 63.21,-15.14 54.79,0 123.85,32.17 143.53,58.87 V 182.4 c -15.37,-11.85 -36.21,-22.06 -62.55,-30.62 -26.34,-8.56 -54.65,-12.84 -84.93,-12.84 -37.76,0 -70.23,6.48 -97.44,19.42 -27.22,12.95 -47.96,30.29 -62.22,52.01 -14.27,21.73 -21.4,45.1 -21.4,70.12 0,37.31 10.86,66.5 32.59,87.57 21.73,21.07 53.43,37.1 95.14,48.06 l 38.85,10.53 c 24.58,6.58 43.01,12.95 55.31,19.09 12.28,6.15 20.41,12.51 24.36,19.09 3.95,6.58 5.93,14.71 5.93,24.36 0,16.24 -6.7,29.08 -20.08,38.52 -13.39,9.44 -32.82,14.16 -58.27,14.16 -57.44,0 -144.47,-38.11 -173.82,-85.84 v 111.51 c 15.36,15.8 39.5,29.96 72.42,42.47 32.92,12.51 68.25,18.76 106,18.76 35.55,0 66.5,-6.37 92.83,-19.09 26.34,-12.73 46.52,-30.17 60.57,-52.34 14.04,-22.16 21.07,-46.85 21.07,-74.07 -0.01,-36.85 -10.77,-66.25 -32.27,-88.21 z"
   id="path2"
   style="fill:#1ed760;fill-opacity:1" />
	</g>
</g><g
             id="p-7"
             transform="matrix(0.16667713,0,0,0.14448324,10.768935,1.2938069)"
             style="fill:#1ed760;fill-opacity:1">
	<g
   id="g9"
   style="fill:#1ed760;fill-opacity:1">
		<path
   d="m 1656.76,358.34 c -13.06,-27.08 -31.17,-48.41 -54.31,-63.98 -23.15,-15.57 -49.16,-23.36 -78.03,-23.36 -54.09,0 -95.8,26.18 -125.13,78.53 v -73.38 h -96.94 v 452.48 h 96.94 V 550.61 c 29.33,51.45 71.26,77.18 125.81,77.18 28.88,0 54.88,-7.68 78.03,-23.02 23.14,-15.34 41.13,-36.56 53.97,-63.64 12.83,-27.08 19.25,-57.55 19.25,-91.4 0,-33.85 -6.53,-64.31 -19.59,-91.39 z m -100.04,161.13 c -14.67,17.6 -33.92,26.4 -57.75,26.4 -23.38,0 -44.12,-9.14 -62.22,-27.42 -18.11,-18.28 -31.28,-41.4 -39.53,-69.39 8.25,-27.98 21.42,-51.11 39.53,-69.39 18.1,-18.28 38.84,-27.42 62.22,-27.42 23.83,0 43.08,9.03 57.75,27.08 14.66,18.06 22,41.53 22,70.41 0,28.88 -7.33,52.12 -22,69.73 z"
   id="path7"
   style="fill:#1ed760;fill-opacity:1" />
	</g>
</g><g
             id="o-5"
             transform="matrix(0.16667713,0,0,0.14448324,10.768935,1.2938069)"
             style="fill:#1ed760;fill-opacity:1">
	<g
   id="g14"
   style="fill:#1ed760;fill-opacity:1">
		<path
   d="m 2055.46,357.76 c -16.05,-27.52 -38.39,-49.19 -67.03,-64.99 -28.65,-15.79 -61.31,-23.7 -97.97,-23.7 -36.67,0 -69.33,7.9 -97.97,23.7 -28.65,15.8 -50.88,37.47 -66.69,64.99 -15.81,27.53 -23.72,58.22 -23.72,92.07 0,33.41 7.91,63.87 23.72,91.4 15.81,27.53 38.04,49.2 66.69,64.99 28.64,15.79 61.3,23.7 97.97,23.7 36.66,0 69.32,-7.9 97.97,-23.7 28.64,-15.79 50.98,-37.46 67.03,-64.99 16.04,-27.52 24.06,-57.99 24.06,-91.4 0,-33.85 -8.02,-64.53 -24.06,-92.07 z m -98.31,162.48 c -16.96,18.51 -39.19,27.76 -66.69,27.76 -27.05,0 -49.05,-9.14 -66,-27.42 -16.96,-18.28 -25.44,-41.86 -25.44,-70.75 0,-28.88 8.48,-52.57 25.44,-71.08 16.95,-18.5 38.95,-27.76 66,-27.76 27.04,0 49.16,9.26 66.34,27.76 17.19,18.51 25.78,42.21 25.78,71.08 0.01,28.44 -8.48,51.91 -25.43,70.41 z"
   id="path12"
   style="fill:#1ed760;fill-opacity:1" />
	</g>
</g><g
             id="t-3"
             transform="matrix(0.16667713,0,0,0.14448324,10.768935,1.2938069)"
             style="fill:#1ed760;fill-opacity:1">
	<g
   id="g19"
   style="fill:#1ed760;fill-opacity:1">
		<path
   d="m 2253.24,534.49 c -8.02,-8.12 -12.03,-21.43 -12.03,-39.94 V 355.76 h 93.88 v -76.5 h -93.88 v -93.43 h -0.69 L 2079.65,310.4 v 45.36 h 63.94 v 153 c 0,38.82 10.31,68.04 30.94,87.67 20.62,19.63 48.35,29.45 83.19,29.45 14.2,0 36.83,-2.4 48.29,-6.01 11.45,-3.62 24.04,-10.58 30,-16 v -71 c -29.04,23.23 -71.5,13.04 -82.77,1.62 z"
   id="path17"
   style="fill:#1ed760;fill-opacity:1" />
	</g>
</g><g
             id="i-5"
             transform="matrix(0.16667713,0,0,0.14448324,10.768935,1.2938069)"
             style="fill:#1ed760;fill-opacity:1">
	<g
   id="g24"
   style="fill:#1ed760;fill-opacity:1">
		<path
   d="m 2373.3,212.87 c 10.76,10.15 24.63,15.23 41.59,15.23 16.5,0 30.13,-5.08 40.91,-15.23 10.76,-10.16 16.16,-22.9 16.16,-38.25 0,-15.34 -5.39,-28.1 -16.16,-38.25 -10.77,-10.15 -24.41,-15.23 -40.91,-15.23 -16.96,0 -30.83,5.08 -41.59,15.23 -10.77,10.15 -16.16,22.91 -16.16,38.25 0.01,15.35 5.39,28.09 16.16,38.25 z m -7.22,406.54 h 97.63 V 279.26 h -97.63 z"
   id="path22"
   style="fill:#1ed760;fill-opacity:1" />
	</g>
</g><g
             id="f-6"
             transform="matrix(0.16667713,0,0,0.14448324,10.768935,1.2938069)"
             style="fill:#1ed760;fill-opacity:1">
	<g
   id="g29"
   style="fill:#1ed760;fill-opacity:1">
		<path
   d="m 2656.05,253.46 c 2.01,-15.43 5.5,-24.66 12.73,-33.88 8.01,-10.21 19,-17.35 36.03,-17.35 9.62,0 25.38,2.76 34.18,5.64 11.19,3.69 32.5,13.36 38,17 l -35.09,-84.8 c -7.33,-4.1 -17.17,-7.96 -29.54,-11.61 -12.36,-3.64 -25.41,-5.46 -39.15,-5.46 -35.27,0 -63.08,11.5 -83.45,34.49 -20.38,23 -30.57,52.71 -30.57,89.14 v 32.79 h -61.01 v 77.18 h 61.01 v 262.97 h 96.85 V 356.59 h 90.67 v -77.18 h -90.67 v -25.95 z"
   id="path27"
   style="fill:#1ed760;fill-opacity:1" />
	</g>
</g><g
             id="y-2"
             transform="matrix(0.16667713,0,0,0.14448324,10.768935,1.2938069)"
             style="fill:#1ed760;fill-opacity:1">
	<g
   id="g34"
   style="fill:#1ed760;fill-opacity:1">
		<polygon
   points="2781,728 2886,728 3084.73,279.41 2986.5,279.41 2896.52,495.25 2805.86,279.41 2698.02,279.41 2844.32,593.61 "
   id="polygon32"
   style="fill:#1ed760;fill-opacity:1" />
	</g>
</g></g><path
           d="M 78.984445,1.6799178 C 43.918336,0.4685675 14.361142,24.208149 12.973933,54.705334 11.58007,85.202518 38.881803,110.90333 73.944586,112.11468 109.01235,113.32747 138.56124,89.587895 139.95509,59.089268 141.34231,28.592083 114.04556,2.8883838 78.984445,1.6799178 Z M 105.80548,82.632725 c -0.79008,1.212792 -2.32865,1.818468 -3.8273,1.636765 -0.45908,-0.05624 -0.91816,-0.187471 -1.3473,-0.399458 C 92.232789,79.712506 83.079539,77.005714 73.427294,75.823206 63.775048,74.640697 54.11615,75.05025 44.725046,77.035999 c -2.03923,0.429741 -4.088441,-0.656149 -4.582447,-2.429912 -0.494006,-1.772321 0.755148,-3.556177 2.792714,-3.985919 10.325891,-2.181872 20.942861,-2.631803 31.548189,-1.333927 10.605328,1.297875 20.663423,4.272894 29.904828,8.844298 1.818,0.904187 2.45672,2.914452 1.42214,4.500744 h -0.005 z m 8.35153,-14.50592 c -1.29574,2.080927 -4.29137,2.85821 -6.68489,1.731943 C 97.645232,65.23687 87.004974,62.201284 75.849087,60.837073 64.691538,59.472861 53.505711,59.842035 42.594333,61.92873 c -0.592141,0.111041 -1.179294,0.13123 -1.748149,0.06056 -1.981014,-0.24227 -3.675937,-1.525725 -4.130024,-3.328329 -0.587151,-2.313102 1.097791,-4.601689 3.75744,-5.112187 12.062396,-2.308776 24.427516,-2.716885 36.751053,-1.212792 12.318548,1.505535 24.078217,4.859822 34.939687,9.970566 2.39851,1.126267 3.28672,3.727787 1.99267,5.813039 z m 9.25637,-16.350344 c -1.21921,2.040549 -3.75744,3.096154 -6.2308,2.793316 -0.66865,-0.08076 -1.324,-0.262459 -1.95773,-0.545107 C 103.78287,48.847589 91.459345,45.428409 78.595229,43.856538 65.731112,42.286109 52.797138,42.61923 40.159233,44.851576 c -3.28672,0.581159 -6.486948,-1.267592 -7.155602,-4.121475 -0.668655,-2.85821 1.457068,-5.641431 4.738798,-6.222592 13.996837,-2.470288 28.306378,-2.83802 42.542732,-1.101751 14.234692,1.73771 27.872249,5.526064 40.543419,11.258347 2.97401,1.344022 4.12836,4.531027 2.5848,7.116682 z"
           id="path40"
           style="fill:#1ed760;fill-opacity:1;stroke-width:0.154875" /></g></g></g></g></svg>
