<?xml version="1.0" encoding="UTF-8" standalone="no"?><!DOCTYPE svg PUBLIC "-//W3C//DTD SVG 1.1//EN" "http://www.w3.org/Graphics/SVG/1.1/DTD/svg11.dtd"><svg width="100%" height="100%" viewBox="0 0 9534 1671" version="1.1" xmlns="http://www.w3.org/2000/svg" xmlns:xlink="http://www.w3.org/1999/xlink" xml:space="preserve" xmlns:serif="http://www.serif.com/" style="fill-rule:evenodd;clip-rule:evenodd;stroke-linejoin:round;stroke-miterlimit:2;"><g id="wide-light"><g id="text"><g><g><path d="M313.198,1288.35c-16.906,0 -29.64,-4.42 -38.201,-13.26c-8.561,-8.841 -14.761,-18.84 -18.6,-29.996l-251.157,-801.405c-1.352,-4.992 -2.028,-9.895 -2.028,-14.707c0,-11.156 3.938,-20.673 11.815,-28.549c7.876,-7.876 17.392,-11.815 28.549,-11.815l227.041,0c16.33,0 29.104,4.371 38.323,13.113c9.219,8.741 14.883,17.338 16.991,25.791l123.66,420.614l131.742,-419.154c2.307,-8.849 8.12,-17.789 17.438,-26.819c9.318,-9.03 22.43,-13.545 39.336,-13.545l139.61,0c16.906,0 30.068,4.515 39.485,13.545c9.417,9.03 15.18,17.97 17.289,26.819l131.742,419.154l123.632,-420.614c2.127,-8.453 7.8,-17.05 17.019,-25.791c9.219,-8.742 21.993,-13.113 38.322,-13.113l227.042,0c11.139,0 20.651,3.939 28.536,11.815c7.885,7.876 11.828,17.393 11.828,28.549c-0,4.812 -0.676,9.715 -2.028,14.707l-251.157,801.405c-3.659,11.156 -9.764,21.155 -18.316,29.996c-8.552,8.84 -21.381,13.26 -38.485,13.26l-197.708,0c-16.906,0 -29.784,-4.42 -38.634,-13.26c-8.849,-8.841 -15.103,-18.84 -18.762,-29.996l-138.907,-405.582l-140.34,405.582c-3.659,11.156 -9.859,21.155 -18.6,29.996c-8.742,8.84 -21.673,13.26 -38.796,13.26l-197.681,0Z" style="fill:#2f333e;fill-rule:nonzero;"/><path d="M1537.96,1288.35c-12.49,0 -23.155,-4.42 -31.996,-13.26c-8.84,-8.841 -13.26,-19.506 -13.26,-31.997l-0,-809.218c-0,-12.49 4.42,-23.155 13.26,-31.996c8.841,-8.84 19.506,-13.261 31.996,-13.261l262.404,0c12.49,0 23.156,4.421 31.996,13.261c8.841,8.841 13.261,19.506 13.261,31.996l0,809.218c0,12.491 -4.42,23.156 -13.261,31.997c-8.84,8.84 -19.506,13.26 -31.996,13.26l-262.404,0Zm3.975,-1010.09c-12.491,-0 -23.156,-4.416 -31.997,-13.248c-8.84,-8.831 -13.26,-19.501 -13.26,-32.009l-0,-185.11c-0,-12.491 4.42,-23.206 13.26,-32.145c8.841,-8.94 19.506,-13.41 31.997,-13.41l254.158,0c12.49,0 23.205,4.47 32.145,13.41c8.939,8.939 13.409,19.654 13.409,32.145l-0,185.11c-0,12.508 -4.47,23.178 -13.409,32.009c-8.94,8.832 -19.655,13.248 -32.145,13.248l-254.158,-0Z" style="fill:#2f333e;fill-rule:nonzero;"/><path d="M2320.22,1305.65c-52.52,-0 -100.701,-8.039 -144.544,-24.116c-43.842,-16.077 -81.858,-40.706 -114.048,-73.887c-32.19,-33.181 -57.553,-75.05 -76.09,-125.605c-18.537,-50.556 -29.446,-110.322 -32.726,-179.298c-1.154,-24.962 -1.731,-46.861 -1.731,-65.695c0,-18.835 0.577,-40.256 1.731,-64.263c2.307,-65.137 12.733,-122.749 31.279,-172.836c18.547,-50.088 43.915,-91.961 76.105,-125.619c32.189,-33.659 70.444,-59.244 114.764,-76.753c44.32,-17.51 92.74,-26.265 145.26,-26.265c52.34,-0 98.512,8.232 138.515,24.697c40.003,16.464 73.946,38.457 101.828,65.979l0,-356.865c0,-12.49 4.42,-23.155 13.261,-31.996c8.84,-8.84 19.506,-13.261 31.996,-13.261l271.055,0c12.49,0 23.156,4.421 31.996,13.261c8.841,8.841 13.261,19.506 13.261,31.996l0,1137.97c0,12.491 -4.42,23.156 -13.261,31.997c-8.84,8.84 -19.506,13.26 -31.996,13.26l-249.481,0c-12.49,0 -23.155,-4.42 -31.996,-13.26c-8.84,-8.841 -13.261,-19.506 -13.261,-31.997l0,-46.798c-27.882,32.497 -63.023,58.847 -105.424,79.051c-42.4,20.205 -94.564,30.307 -156.493,30.307Zm121.118,-274.381c29.324,0 52.426,-5.983 69.305,-17.951c16.879,-11.968 29.13,-28.126 36.754,-48.474c7.624,-20.349 12.013,-43.148 13.166,-68.399c2.109,-24.963 3.163,-46.73 3.163,-65.304c0,-18.573 -1.054,-39.872 -3.163,-63.897c-1.153,-23.125 -6.069,-43.757 -14.748,-61.898c-8.678,-18.14 -21.456,-32.617 -38.335,-43.432c-16.879,-10.814 -38.927,-16.221 -66.142,-16.221c-28.549,0 -51.214,5.889 -67.994,17.668c-16.779,11.778 -28.788,27.986 -36.024,48.623c-7.236,20.637 -12.008,44.256 -14.315,70.859c-3.064,37.092 -3.064,74.185 -0,111.277c2.307,26.602 7.079,50.222 14.315,70.859c7.236,20.637 19.245,36.845 36.024,48.623c16.78,11.778 39.445,17.667 67.994,17.667Z" style="fill:#2f333e;fill-rule:nonzero;"/><path d="M3499.15,1305.65c-144.494,-0 -259.443,-37.102 -344.847,-111.304c-85.405,-74.203 -128.882,-188.454 -130.432,-342.753c-0.198,-4.83 -0.297,-10.638 -0.297,-17.424c-0,-6.786 0.099,-12.116 0.297,-15.991c2.884,-95.705 23.972,-176.905 63.263,-243.601c39.291,-66.696 94.006,-117.247 164.144,-151.654c70.138,-34.407 152.285,-51.61 246.439,-51.61c107.583,-0 196.348,20.997 266.297,62.992c69.949,41.995 122.127,98.12 156.534,168.375c34.407,70.256 51.61,148.649 51.61,235.18l0,47.527c0,12.491 -4.469,23.156 -13.409,31.997c-8.94,8.84 -19.655,13.26 -32.145,13.26l-532.567,0l0,10.112c0.397,27.936 4.123,52.317 11.179,73.143c7.057,20.826 18.303,37.079 33.74,48.758c15.438,11.68 34.547,17.519 57.329,17.519c14.112,0 26.102,-2.226 35.97,-6.678c9.868,-4.451 18.614,-10.345 26.238,-17.681c7.624,-7.335 14.319,-14.175 20.087,-20.519c10.381,-11.157 18.933,-18.177 25.656,-21.061c6.723,-2.883 16.906,-4.325 30.55,-4.325l276.516,-0c11.337,-0 20.754,3.411 28.252,10.232c7.498,6.822 10.67,15.902 9.516,27.238c-1.153,20.944 -11.053,46.118 -29.698,75.523c-18.645,29.406 -46.365,58.04 -83.16,85.905c-36.795,27.864 -83.345,50.97 -139.651,69.318c-56.305,18.348 -122.109,27.522 -197.411,27.522Zm-105.113,-571.146l207.928,-0l0,-2.595c0,-30.839 -4.006,-56.86 -12.017,-78.065c-8.011,-21.204 -19.839,-37.214 -35.484,-48.028c-15.644,-10.814 -34.56,-16.221 -56.747,-16.221c-22.204,0 -41.075,5.407 -56.611,16.221c-15.537,10.814 -27.265,26.824 -35.187,48.028c-7.921,21.205 -11.882,47.226 -11.882,78.065l0,2.595Z" style="fill:#2f333e;fill-rule:nonzero;"/></g><g><path d="M5698.29,1305.65c-64.002,-0 -121.037,-12.013 -171.106,-36.038c-50.069,-24.025 -89.284,-56.558 -117.644,-97.597c-28.36,-41.04 -42.54,-87.225 -42.54,-138.556c0,-83.232 33.88,-148.734 101.639,-196.505c67.759,-47.771 158.143,-80.975 271.15,-99.611l198.6,-30.875l0,-11.652c0,-35.254 -5.321,-61.604 -15.964,-79.051c-10.643,-17.446 -32.942,-26.17 -66.898,-26.17c-23.539,0 -42.5,4.632 -56.883,13.896c-14.382,9.264 -27.539,21.908 -39.471,37.931c-11.517,13.463 -26.783,20.195 -45.798,20.195l-249.183,0c-11.932,0 -21.498,-3.51 -28.698,-10.53c-7.2,-7.02 -10.323,-16.199 -9.368,-27.536c0.956,-20.943 9.647,-45.685 26.076,-74.225c16.428,-28.54 41.886,-56.31 76.374,-83.309c34.488,-26.999 78.866,-49.533 133.135,-67.601c54.269,-18.069 119.829,-27.103 196.681,-27.103c76.69,-0 142.994,8.507 198.912,25.521c55.918,17.014 101.792,41.188 137.623,72.522c35.83,31.334 62.532,69.436 80.105,114.305c17.573,44.869 26.359,94.673 26.359,149.41l0,510.019c0,12.491 -4.42,23.156 -13.261,31.997c-8.84,8.84 -19.505,13.26 -31.996,13.26l-256.672,0c-12.49,0 -23.156,-4.42 -31.996,-13.26c-8.841,-8.841 -13.261,-19.506 -13.261,-31.997l0,-53.989c-15.752,22.674 -36.078,42.716 -60.978,60.126c-24.899,17.411 -53.651,31.167 -86.256,41.27c-32.604,10.102 -68.831,15.153 -108.681,15.153Zm102.166,-229.799c28.134,-0 52.849,-5.782 74.144,-17.344c21.295,-11.562 37.966,-29.774 50.015,-54.638c12.049,-24.863 18.073,-55.886 18.073,-93.068l0,-11.382l-122.524,23.953c-40.877,7.894 -69.719,19.267 -86.526,34.118c-16.807,14.852 -25.21,31.541 -25.21,50.07c-0,13.121 4.006,24.845 12.017,35.172c8.012,10.328 18.965,18.429 32.861,24.305c13.897,5.876 29.613,8.814 47.15,8.814Z" style="fill:#2f333e;fill-rule:nonzero;"/><path d="M5991.03,1288.35c-12.49,0 -23.156,-4.42 -31.996,-13.26c-8.841,-8.841 -13.261,-19.506 -13.261,-31.997l0,-809.218c0,-12.49 4.42,-23.155 13.261,-31.996c8.84,-8.84 19.506,-13.261 31.996,-13.261l256.645,0c12.509,0 23.179,4.421 32.01,13.261c8.832,8.841 13.247,19.506 13.247,31.996l0,61.181c29.234,-34.623 68.692,-63.902 118.374,-87.837c49.682,-23.935 106.163,-35.903 169.443,-35.903c62.145,-0 118.739,14.378 169.781,43.135c51.043,28.756 91.938,72.021 122.686,129.796c30.748,57.774 46.122,130.764 46.122,218.971l0,479.875c0,12.491 -4.42,23.156 -13.261,31.997c-8.84,8.84 -19.506,13.26 -31.996,13.26l-279.679,0c-12.49,0 -23.156,-4.42 -31.996,-13.26c-8.841,-8.841 -13.261,-19.506 -13.261,-31.997l-0,-468.358c-0,-41.454 -10.026,-73.324 -30.077,-95.61c-20.051,-22.286 -48.884,-33.429 -86.499,-33.429c-36.84,0 -65.727,11.143 -86.661,33.429c-20.934,22.286 -31.402,54.156 -31.402,95.61l0,468.358c0,12.491 -4.42,23.156 -13.26,31.997c-8.841,8.84 -19.506,13.26 -31.997,13.26l-278.219,0Z" style="fill:#2f333e;fill-rule:nonzero;"/><path d="M7522.24,1669c-93.974,0 -171.989,-11.963 -234.044,-35.889c-62.054,-23.926 -111.574,-52.895 -148.558,-86.905c-36.984,-34.01 -63.542,-67.543 -79.673,-100.598c-16.131,-33.055 -24.773,-58.711 -25.927,-76.969c-1.153,-12.508 3.028,-23.228 12.545,-32.159c9.516,-8.93 20.42,-13.395 32.712,-13.395l284.546,-0c12.112,-0 21.867,2.978 29.265,8.935c7.399,5.956 13.405,14.612 18.019,25.967c5.966,10.778 12.657,21.137 20.074,31.077c7.417,9.94 17.595,17.663 30.536,23.169c12.941,5.506 30.226,8.259 51.854,8.259c25.089,0 45.789,-4.478 62.1,-13.436c16.311,-8.958 28.522,-23.124 36.632,-42.499c8.111,-19.376 12.166,-44.78 12.166,-76.213l0,-115.062c-26.927,25.792 -60.153,46.388 -99.679,61.789c-39.525,15.401 -86.413,23.102 -140.664,23.102c-56.359,-0 -106.699,-7.795 -151.018,-23.385c-44.32,-15.591 -81.858,-39.499 -112.616,-71.725c-30.757,-32.226 -54.976,-73.139 -72.657,-122.74c-17.681,-49.6 -28.053,-108.88 -31.117,-177.837c-1.154,-30.388 -1.154,-60.289 -0,-89.703c3.064,-65.137 13.197,-122.749 30.401,-172.836c17.203,-50.088 41.422,-91.961 72.657,-125.619c31.235,-33.659 69.012,-59.244 113.332,-76.753c44.319,-17.51 94.659,-26.265 151.018,-26.265c59.045,-0 110.489,11.346 154.331,34.037c43.842,22.692 79.704,51.638 107.586,86.837l0,-58.017c0,-12.49 4.416,-23.205 13.248,-32.145c8.831,-8.94 19.501,-13.41 32.009,-13.41l256.348,0c12.509,0 23.228,4.47 32.159,13.41c8.93,8.94 13.396,19.655 13.396,32.145l1.432,826.818c0,93.001 -20.064,169.492 -60.193,229.475c-40.13,59.982 -95.597,104.734 -166.402,134.256c-70.805,29.523 -152.745,44.284 -245.818,44.284Zm-16.978,-678.016c27.396,0 49.533,-5.502 66.412,-16.505c16.879,-11.003 29.563,-25.724 38.052,-44.162c8.489,-18.438 13.41,-39.318 14.761,-62.641c1.154,-10.579 1.731,-27.265 1.731,-50.055c-0,-22.791 -0.577,-38.999 -1.731,-48.623c-1.351,-23.322 -6.272,-44.198 -14.761,-62.627c-8.489,-18.429 -21.173,-33.15 -38.052,-44.162c-16.879,-11.013 -39.016,-16.519 -66.412,-16.519c-28.549,0 -51.218,5.889 -68.007,17.668c-16.789,11.778 -28.797,27.986 -36.024,48.623c-7.228,20.637 -11.995,44.256 -14.302,70.859c-2.127,23.665 -2.127,47.33 -0,70.994c2.307,26.603 7.074,50.227 14.302,70.873c7.227,20.646 19.235,36.854 36.024,48.623c16.789,11.769 39.458,17.654 68.007,17.654Z" style="fill:#2f333e;fill-rule:nonzero;"/><path d="M8174,1288.35c-12.508,0 -23.178,-4.42 -32.009,-13.26c-8.832,-8.841 -13.248,-19.506 -13.248,-31.997l0,-1137.97c0,-12.49 4.416,-23.155 13.248,-31.996c8.831,-8.84 19.501,-13.261 32.009,-13.261l262.404,0c12.49,0 23.156,4.421 31.996,13.261c8.841,8.841 13.261,19.506 13.261,31.996l-0,1137.97c-0,12.491 -4.42,23.156 -13.261,31.997c-8.84,8.84 -19.506,13.26 -31.996,13.26l-262.404,0Z" style="fill:#2f333e;fill-rule:nonzero;"/><path d="M9058.69,1305.65c-144.495,-0 -259.444,-37.102 -344.848,-111.304c-85.404,-74.203 -128.881,-188.454 -130.431,-342.753c-0.199,-4.83 -0.298,-10.638 -0.298,-17.424c0,-6.786 0.099,-12.116 0.298,-15.991c2.883,-95.705 23.971,-176.905 63.262,-243.601c39.291,-66.696 94.006,-117.247 164.144,-151.654c70.139,-34.407 152.285,-51.61 246.44,-51.61c107.582,-0 196.347,20.997 266.297,62.992c69.949,41.995 122.127,98.12 156.533,168.375c34.407,70.256 51.611,148.649 51.611,235.18l-0,47.527c-0,12.491 -4.47,23.156 -13.41,31.997c-8.939,8.84 -19.654,13.26 -32.145,13.26l-532.566,0l-0,10.112c0.396,27.936 4.123,52.317 11.179,73.143c7.056,20.826 18.303,37.079 33.74,48.758c15.437,11.68 34.546,17.519 57.328,17.519c14.112,0 26.102,-2.226 35.97,-6.678c9.868,-4.451 18.614,-10.345 26.238,-17.681c7.624,-7.335 14.32,-14.175 20.087,-20.519c10.382,-11.157 18.934,-18.177 25.656,-21.061c6.723,-2.883 16.906,-4.325 30.55,-4.325l276.516,-0c11.337,-0 20.754,3.411 28.252,10.232c7.498,6.822 10.67,15.902 9.517,27.238c-1.154,20.944 -11.053,46.118 -29.699,75.523c-18.645,29.406 -46.365,58.04 -83.16,85.905c-36.795,27.864 -83.345,50.97 -139.65,69.318c-56.306,18.348 -122.109,27.522 -197.411,27.522Zm-105.113,-571.146l207.927,-0l0,-2.595c0,-30.839 -4.005,-56.86 -12.017,-78.065c-8.011,-21.204 -19.839,-37.214 -35.483,-48.028c-15.645,-10.814 -34.56,-16.221 -56.747,-16.221c-22.205,0 -41.076,5.407 -56.612,16.221c-15.536,10.814 -27.265,26.824 -35.186,48.028c-7.922,21.205 -11.882,47.226 -11.882,78.065l-0,2.595Z" style="fill:#2f333e;fill-rule:nonzero;"/></g></g></g><g id="icon-light"><g><path d="M4809.44,809.095c16.505,8.15 25.79,26.087 22.916,44.269c-16.956,107.253 -73.777,466.669 -93.467,591.212c-1.82,11.516 -8.341,21.759 -18.004,28.283c-9.663,6.524 -21.601,8.743 -32.962,6.127c-50.332,-11.509 -100.123,-29.019 -148.424,-52.868c-319.467,-157.745 -458.377,-535.888 -323.853,-860.366c4.466,-10.701 13.159,-19.079 24.018,-23.146c10.858,-4.067 22.916,-3.462 33.313,1.672c112.961,55.703 439.119,216.752 536.463,264.817Z" style="fill:#43ce67;"/><path d="M4524.81,862.244c-16.505,-8.15 -25.79,-26.087 -22.916,-44.268c16.956,-107.253 73.778,-466.67 93.467,-591.213c1.821,-11.516 8.341,-21.759 18.004,-28.283c9.663,-6.524 21.601,-8.743 32.963,-6.127c50.331,11.509 100.122,29.019 148.423,52.869c319.467,157.744 458.377,535.887 323.853,860.366c-4.466,10.701 -13.159,19.078 -24.018,23.145c-10.858,4.068 -22.916,3.463 -33.313,-1.671c-112.961,-55.704 -439.119,-216.752 -536.463,-264.818Z" style="fill:#4379ae;"/></g></g></g></svg>