<svg width="220" height="400" viewBox="0 0 220 400" xmlns="http://www.w3.org/2000/svg" xmlns:sketch="http://www.bohemiancoding.com/sketch/ns"><title>Pattern</title><desc>Created with Sketch Beta.</desc><defs><linearGradient x1="50%" y1="0%" x2="50%" y2="100%" id="a"><stop stop-color="#fff" stop-opacity="0" offset="0%"/><stop stop-color="#fff" offset="100%"/></linearGradient></defs><g sketch:type="MSLayerGroup" fill="none"><g stroke="#EEF2F4" sketch:type="MSShapeGroup"><path d="M-20.501-35.564l21.185-11.995.183 73.158-21.19 12.252-.027-24.275-21.149 12.128-.064-24.522 21.149-12.174-.087-24.572z" id="Fill-36"/><path d="M-77.708-43.427l57.181 32.343-21.034 12.114-57.181-32.343 21.034-12.114zm.18-24.36l21.034-12.114 57.181 32.343-21.034 12.114-57.181-32.343z" id="Fill-39"/><g><path d="M52.347 93.274v24.581l21.29-12.006-21.29-12.575z" id="Fill-35"/><path d="M52.501 44.436l-21.185-11.995-.183 73.158 21.19 12.252.027-24.275 21.149 12.128.064-24.522-21.149-12.174.087-24.572z" id="Fill-36"/><path d="M73.561 81.132v24.581l57.181-32.343v-24.581l-57.181 32.343zm35.966-68.919l-57.181 32.343v24.581l57.181-32.343v-24.581z" id="Fill-37"/><path d="M109.708 36.573l-57.181 32.343 21.034 12.114 57.181-32.343-21.034-12.114zm-.18-24.36l-21.034-12.114-57.181 32.343 21.034 12.114 57.181-32.343z" id="Fill-39"/></g><g><path d="M-20.501 122.436l21.185-11.995.183 73.158-21.19 12.252-.027-24.275-21.149 12.128-.064-24.522 21.149-12.174-.087-24.572z" id="Fill-36"/><path d="M-77.708 114.573l57.181 32.343-21.034 12.114-57.181-32.343 21.034-12.114zm.18-24.36l21.034-12.114 57.181 32.343-21.034 12.114-57.181-32.343z" id="Fill-39"/></g><path d="M199.653 13.274v24.581l-21.29-12.006 21.29-12.575z" id="Fill-35"/><path d="M199.499-35.564l21.185-11.995.183 73.158-21.19 12.252-.027-24.275-21.149 12.128-.064-24.522 21.149-12.174-.087-24.572z" id="Fill-36"/><path d="M178.439 1.132v24.581l-57.181-32.343v-24.581l57.181 32.343zm-35.966-68.919l57.181 32.343v24.581l-57.181-32.343v-24.581z" id="Fill-37"/><path d="M142.292-43.427l57.181 32.343-21.034 12.114-57.181-32.343 21.034-12.114zm.18-24.36l21.034-12.114 57.181 32.343-21.034 12.114-57.181-32.343z" id="Fill-39"/><g><path d="M199.653 171.274v24.581l-21.29-12.006 21.29-12.575z" id="Fill-35"/><path d="M199.499 122.436l21.185-11.995.183 73.158-21.19 12.252-.027-24.275-21.149 12.128-.064-24.522 21.149-12.174-.087-24.572z" id="Fill-36"/><path d="M178.439 159.132v24.581l-57.181-32.343v-24.581l57.181 32.343zm-35.966-68.919l57.181 32.343v24.581l-57.181-32.343v-24.581z" id="Fill-37"/><path d="M142.292 114.573l57.181 32.343-21.034 12.114-57.181-32.343 21.034-12.114zm.18-24.36l21.034-12.114 57.181 32.343-21.034 12.114-57.181-32.343z" id="Fill-39"/></g><path d="M52.347 251.274v24.581l21.29-12.006-21.29-12.575z"/><path d="M52.501 202.436l-21.185-11.995-.183 73.158 21.19 12.252.027-24.275 21.149 12.128.064-24.522-21.149-12.174.087-24.572z" id="Fill-36"/><path d="M73.561 239.132v24.581l57.181-32.343v-24.581l-57.181 32.343zm35.966-68.919l-57.181 32.343v24.581l57.181-32.343v-24.581z" id="Fill-37"/><path d="M109.708 194.573l-57.181 32.343 21.034 12.114 57.181-32.343-21.034-12.114zm-.18-24.36l-21.034-12.114-57.181 32.343 21.034 12.114 57.181-32.343z" id="Fill-39"/><path d="M-20.501 280.436l21.185-11.995.183 73.158-21.19 12.252-.027-24.275-21.149 12.128-.064-24.522 21.149-12.174-.087-24.572z" id="Fill-36"/><path d="M-77.708 272.573l57.181 32.343-21.034 12.114-57.181-32.343 21.034-12.114zm.18-24.36l21.034-12.114 57.181 32.343-21.034 12.114-57.181-32.343z" id="Fill-39"/><path d="M199.653 329.274v24.581l-21.29-12.006 21.29-12.575z"/><path d="M199.499 280.436l21.185-11.995.183 73.158-21.19 12.252-.027-24.275-21.149 12.128-.064-24.522 21.149-12.174-.087-24.572z"/><path d="M178.439 317.132v24.581l-57.181-32.343v-24.581l57.181 32.343zm-35.966-68.919l57.181 32.343v24.581l-57.181-32.343v-24.581z"/><path d="M142.292 272.573l57.181 32.343-21.034 12.114-57.181-32.343 21.034-12.114zm.18-24.36l21.034-12.114 57.181 32.343-21.034 12.114-57.181-32.343z" id="Fill-39"/><path d="M52.501 360.436l-21.185-11.995-.183 73.158 21.19 12.252.027-24.275 21.149 12.128.064-24.522-21.149-12.174.087-24.572zM73.561 397.132v24.581l57.181-32.343v-24.581l-57.181 32.343zm35.966-68.919l-57.181 32.343v24.581l57.181-32.343v-24.581z"/><path d="M109.708 352.573l-57.181 32.343 21.034 12.114 57.181-32.343-21.034-12.114zm-.18-24.36l-21.034-12.114-57.181 32.343 21.034 12.114 57.181-32.343z"/><path d="M-77.708 430.573l57.181 32.343-21.034 12.114-57.181-32.343 21.034-12.114zm.18-24.36l21.034-12.114 57.181 32.343-21.034 12.114-57.181-32.343zm219.82 24.36l57.181 32.343-21.034 12.114-57.181-32.343 21.034-12.114zm.18-24.36l21.034-12.114 57.181 32.343-21.034 12.114-57.181-32.343z"/></g><path fill="url(#a)" sketch:type="MSShapeGroup" d="M0 0h220v400h-220z"/></g></svg>