<svg xmlns:sketch="http://www.bohemiancoding.com/sketch/ns" xmlns="http://www.w3.org/2000/svg" viewBox="-74 46 50 49" enable-background="new -74 46 50 49"><style type="text/css">.st0{fill:#E74E40;}</style><title>Shape</title><desc>Created with Sketch Beta.</desc><path class="st0" d="M-49 48c12.7 0 23 10.3 23 23 0 8.8-4.9 16.7-12.7 20.6l-4.9-12.4c2.7-1.8 4.4-4.8 4.4-8.2 0-5.4-4.4-9.8-9.8-9.8s-9.8 4.4-9.8 9.8c0 3.4 1.7 6.4 4.4 8.2l-4.9 12.4c-7.8-3.9-12.7-11.8-12.7-20.6 0-12.7 10.3-23 23-23m0-2c-13.8 0-25 11.2-25 25 0 10.6 6.5 19.6 15.8 23.3l6.3-16c-2.9-1.1-4.9-4-4.9-7.3 0-4.3 3.5-7.8 7.8-7.8s7.8 3.5 7.8 7.8c0 3.3-2.1 6.1-4.9 7.3l6.3 16c9.3-3.7 15.8-12.7 15.8-23.3 0-13.8-11.2-25-25-25z" id="Shape" sketch:type="MSShapeGroup"/></svg>