<svg width="32" height="32" viewBox="0 0 32 32" xmlns="http://www.w3.org/2000/svg" xmlns:xlink="http://www.w3.org/1999/xlink" xmlns:sketch="http://www.bohemiancoding.com/sketch/ns"><title>Icon</title><desc>Created with Sketch Beta.</desc><defs><path id="a" d="M0 0h32v32h-32z"/></defs><g sketch:type="MSLayerGroup" fill="none"><g><use fill="#E74E40" sketch:type="MSShapeGroup" xlink:href="#a"/><use xlink:href="#a"/></g><path d="M16.416 13.198c-.36 0-.675.093-.945.279-.27.186-.501.423-.693.711-.192.288-.336.612-.432.972-.096.36-.144.714-.144 1.062 0 .168.021.36.063.576.042.216.117.42.225.612s.255.351.441.477.423.189.711.189c.408 0 .756-.102 1.044-.306.288-.204.522-.459.702-.765.18-.306.312-.633.396-.981.084-.348.126-.672.126-.972 0-.228-.024-.453-.072-.675-.048-.222-.129-.42-.243-.594-.114-.174-.267-.315-.459-.423-.192-.108-.432-.162-.72-.162zm5.742 6.984c-.708.72-1.539 1.257-2.493 1.611-.954.354-2.007.531-3.159.531-1.032 0-1.971-.165-2.817-.495-.846-.33-1.569-.789-2.169-1.377-.6-.588-1.065-1.293-1.395-2.115-.33-.822-.495-1.719-.495-2.691 0-.96.18-1.848.54-2.664.36-.816.852-1.524 1.476-2.124.624-.6 1.353-1.071 2.187-1.413.834-.342 1.725-.513 2.673-.513.816 0 1.608.12 2.376.36.768.24 1.449.6 2.043 1.08.594.48 1.068 1.08 1.422 1.8.354.72.531 1.566.531 2.538 0 .72-.096 1.356-.288 1.908-.192.552-.447 1.014-.765 1.386-.318.372-.687.651-1.107.837-.42.186-.864.279-1.332.279-.54 0-.936-.132-1.188-.396-.252-.264-.378-.57-.378-.918h-.072c-.06.132-.156.273-.288.423-.132.15-.294.291-.486.423s-.411.243-.657.333c-.246.09-.519.135-.819.135-.408 0-.774-.075-1.098-.225-.324-.15-.597-.354-.819-.612-.222-.258-.393-.57-.513-.936-.12-.366-.18-.765-.18-1.197 0-.504.084-.999.252-1.485.168-.486.405-.918.711-1.296.306-.378.681-.681 1.125-.909.444-.228.942-.342 1.494-.342.456 0 .849.105 1.179.315.33.21.561.465.693.765h.072l.18-.81h1.116l-.72 3.348-.063.315-.063.396-.054.405-.018.324.027.315c.018.102.06.198.126.288.066.09.156.162.27.216.114.054.267.081.459.081.3 0 .573-.084.819-.252.246-.168.456-.396.63-.684.174-.288.309-.63.405-1.026.096-.396.144-.822.144-1.278 0-.78-.129-1.467-.387-2.061-.258-.594-.618-1.095-1.08-1.503-.462-.408-1.008-.714-1.638-.918-.63-.204-1.323-.306-2.079-.306-.828 0-1.578.144-2.25.432-.672.288-1.251.684-1.737 1.188-.486.504-.861 1.101-1.125 1.791s-.396 1.437-.396 2.241c0 .852.138 1.62.414 2.304.276.684.663 1.266 1.161 1.746s1.092.849 1.782 1.107 1.455.387 2.295.387c1.068 0 1.992-.165 2.772-.495.78-.33 1.476-.795 2.088-1.395l.666.828z" fill="#fff" sketch:type="MSShapeGroup"/></g></svg>