<?xml version="1.0" encoding="UTF-8" standalone="no"?>
<svg width="26px" height="26px" viewBox="0 0 26 26" version="1.1" xmlns="http://www.w3.org/2000/svg" xmlns:xlink="http://www.w3.org/1999/xlink" xmlns:sketch="http://www.bohemiancoding.com/sketch/ns">
    <!-- Generator: Sketch Beta 3.4.4 (17258) - http://www.bohemiancoding.com/sketch -->
    <title>Rectangle 6 + Rectangle 109 + Rectangle</title>
    <desc>Created with Sketch Beta.</desc>
    <defs></defs>
    <g id="Page-1" stroke="none" stroke-width="1" fill="none" fill-rule="evenodd" sketch:type="MSPage">
        <g id="Homepage-Web" sketch:type="MSArtboardGroup" transform="translate(-260.000000, -1692.000000)">
            <g id="Projects" sketch:type="MSLayerGroup" transform="translate(240.000000, 1482.000000)">
                <g id="Cats" transform="translate(0.000000, 188.000000)" sketch:type="MSShapeGroup">
                    <g id="Rectangle-6-+-Rectangle-109-+-Rectangle" transform="translate(20.000000, 22.000000)">
                        <rect id="Rectangle-6" stroke="#F0F0F0" fill="#FFFFFF" x="0" y="0" width="26" height="26" rx="5"></rect>
                        <g id="Rectangle-109-+-Rectangle" transform="translate(7.000000, 6.000000)" fill="#BBBBBB">
                            <path d="M0,1.00684547 C0,0.450780073 0.455760956,0 1.00247329,0 L10.9975267,0 C11.5511774,0 12,0.449948758 12,1.00684547 L12,12.9931545 C12,13.5492199 11.544239,14 10.9975267,14 L1.00247329,14 C0.448822582,14 0,13.5500512 0,12.9931545 L0,1.00684547 Z M2,1 L11,1 L11,10 L2,10 L2,1 Z M1,11 L11,11 L11,13 L1,13 L1,11 Z M3,2 L4,2 L4,3 L3,3 L3,2 Z M3,4 L4,4 L4,5 L3,5 L3,4 Z M3,6 L4,6 L4,7 L3,7 L3,6 Z M3,8 L4,8 L4,9 L3,9 L3,8 Z" id="Rectangle-109"></path>
                            <path d="M3,12 L6,12 L6,16 L4.5,15.0018311 L3,16 L3,12 Z" id="Rectangle"></path>
                        </g>
                    </g>
                </g>
            </g>
        </g>
    </g>
</svg>