<svg xmlns="http://www.w3.org/2000/svg" viewBox="-74 51 50 40" enable-background="new -74 51 50 40"><style type="text/css">.st0{fill:#E74E40;}</style><title>icon</title><desc>Created with Sketch Beta.</desc><path class="st0" d="M-67 69h12v2h-12zm0 5h12v2h-12zm0-10h12v2h-12zm0 15h12v2h-12zm26.6-28c-4.9 0-7.4 1.1-8.6 2.4-1.1-1.2-3.6-2.4-8.6-2.4h-16.4v38h16.4c5.1 0 7.1 2 7.7 2h1.8c.7 0 1.8-2 7.6-2h16.5v-38h-16.4zm-9.6 37.6s-2.4-1.6-7.6-1.6h-14.4v-34h14.4c7.3 0 7.6 2.8 7.6 2.8v32.8zm24-1.5h-14.4c-5.2 0-7.6 1.6-7.6 1.6v-32.9s.3-2.8 7.6-2.8h14.4v34.1zm-35-28.1h6v2h-6zm18 20h6v2h-6zm0-5h12v2h-12zm0-10h12v2h-12zm0-5h12v2h-12zm0 10h12v2h-12z"/></svg>