<svg xmlns="http://www.w3.org/2000/svg" viewBox="-71 51 56 39" enable-background="new -71 51 56 39"><style type="text/css">.st0{fill:#E74E40;}</style><title>Shape + Path + Path</title><desc>Created with Sketch Beta.</desc><path class="st0" d="M-15 63.8c-.1-.1-.1-.2-.1-.3 0 0 0-.1-.1-.1 0-.1-.1-.1-.1-.1l-.1-.1-.2-.1-14.6-5.6v-.9c0-.2 0-.4-.1-.7-.1-.4-.3-.8-.6-1.2-.1-.2-.3-.4-.5-.5-2.1-2.1-6.9-3.2-11.5-3.2-5.3 0-11 1.5-12.3 4.3-.2.4-.3.8-.3 1.3v.7l-14.8 5.6-.2.1-.1.1-.1.1s0 .1-.1.1l-.1.2v15c0 .4.3.8.7 1l27.1 10.4c.1 0 .2.1.4.1s.2 0 .3-.1l26.8-10.1c.4-.2.7-.6.7-1v-14.7c-.1-.1-.1-.2-.1-.3zm-38.3-7.5c.5-1.4 4.4-3.2 10.4-3.2 5.2 0 8.8 1.4 10 2.6.3.3.4.6.4.8 0 1.4-4.1 3.5-10.5 3.5s-10.5-2.1-10.5-3.5c.2 0 .2-.1.2-.2zm.2 7.2v-3.7c2.4 1.6 6.4 2.4 10.4 2.4 3.9 0 8-.8 10.3-2.4v3.7c0 1.4-4 3.4-10.3 3.5h-.2c-6.2-.1-10.2-2.1-10.2-3.5zm9 23.6l-24.7-9.3v-12.3l24.7 9.3v12.3zm1.2-14l-24.1-9.2 11.5-4.3v3.9c0 3.6 6.5 5.6 12.6 5.6s12.6-2 12.6-5.6v-3.7l11.2 4.3-7.6 2.8-16.2 6.2zm25.8 4.9l-24.7 9.3v-12.4l24.7-9.3v12.4z"/></svg>