<svg xmlns:sketch="http://www.bohemiancoding.com/sketch/ns" xmlns="http://www.w3.org/2000/svg" viewBox="-84 46 31 50" enable-background="new -84 46 31 50"><style type="text/css">.st0{fill:#E74E40;}</style><title>Icon</title><desc>Created with Sketch Beta.</desc><path class="st0" d="M-55.2 50.2v7c-.4.3-2 1.4-8.1 2.6-4.5.9-9.7 1.6-13.9 2.2-1.9.2-3.5.5-4.7.7v-7.5c1.3-.2 3.4-.5 5.3-.7 10.4-1.4 17.4-2.6 21.4-4.3m0 15.4v7c-.4.3-2 1.4-8.1 2.6-4.5.9-9.7 1.6-13.9 2.2-1.9.2-3.5.5-4.7.7v-7.5c1.3-.2 3.4-.5 5.3-.7 10.4-1.5 17.4-2.6 21.4-4.3m0 15.4v7c-.4.3-2 1.4-8.1 2.6-4.5.9-9.7 1.6-13.9 2.2-1.9.2-3.5.5-4.7.7v-7.5c1.3-.2 3.4-.5 5.3-.7 10.4-1.5 17.4-2.7 21.4-4.3m2-35c0 4.8-30.8 6.7-30.8 7.7v11.5c0-1 30.8-2.9 30.8-7.7v-11.5zm0 15.4c0 4.8-30.8 6.7-30.8 7.7v11.5c0-1 30.8-2.9 30.8-7.7v-11.5zm0 15.4c0 4.8-30.8 6.7-30.8 7.7v11.5c0-1 30.8-2.9 30.8-7.7v-11.5z" id="Shape" sketch:type="MSShapeGroup"/></svg>