<svg xmlns="http://www.w3.org/2000/svg" viewBox="-77.1 46.8 45.2 48.3" enable-background="new -77.1 46.8 45.2 48.3"><style type="text/css">.st0{fill:#E74E40;}</style><title>icon</title><desc>Created with Sketch Beta.</desc><path class="st0" d="M-39 81c-2.7 0-5.1 1.6-6.2 3.8l-18.5-10.7c.5-.9.7-2 .7-3.1 0-.8-.1-1.5-.3-2.2l18.6-10.8c1.3 1.8 3.3 2.9 5.7 2.9 3.9 0 7-3.1 7-7s-3.1-7-7-7-7 3.1-7 7c0 .8.1 1.6.4 2.3l-18.6 10.8c-1.3-1.8-3.4-3-5.8-3-3.9 0-7 3.1-7 7s3.1 7 7 7c2 0 3.8-.8 5.1-2.2l19 11c-.1.4-.1.8-.1 1.2 0 3.9 3.1 7 7 7s7-3.1 7-7-3.1-7-7-7zm0-32c2.8 0 5 2.2 5 5s-2.2 5-5 5-5-2.2-5-5 2.2-5 5-5zm-31 27c-2.8 0-5-2.2-5-5s2.2-5 5-5 5 2.2 5 5-2.2 5-5 5zm31 17c-2.8 0-5-2.2-5-5s2.2-5 5-5 5 2.2 5 5-2.2 5-5 5z"/></svg>