<svg width="102" height="120" viewBox="0 0 102 120" xmlns="http://www.w3.org/2000/svg" xmlns:sketch="http://www.bohemiancoding.com/sketch/ns"><title>Logo Copy 90</title><desc>Created with Sketch Beta.</desc><g sketch:type="MSShapeGroup" stroke="#EEF2F4" fill="none"><path d="M22.347 94.274v24.581l21.29-12.006-21.29-12.575zM22.501 45.436l-21.185-11.995-.183 73.158 21.19 12.252.027-24.275 21.149 12.128.064-24.522-21.149-12.174.087-24.572zM43.561 82.132v24.581l57.181-32.343v-24.581l-57.181 32.343zm35.966-68.919l-57.181 32.343v24.581l57.181-32.343v-24.581zM79.708 37.573l-57.181 32.343 21.034 12.114 57.181-32.343-21.034-12.114zm-.18-24.36l-21.034-12.114-57.181 32.343 21.034 12.114 57.181-32.343z"/></g></svg>