<?xml version="1.0" encoding="UTF-8" standalone="no"?>
<svg
   viewBox="0 0 1500 500"
   version="1.1"
   id="svg18"
   sodipodi:docname="typelevel-pride-lettered-vectorized.svg"
   width="1500"
   height="500"
   inkscape:version="1.4.2 (ebf0e940, 2025-05-08)"
   xmlns:inkscape="http://www.inkscape.org/namespaces/inkscape"
   xmlns:sodipodi="http://sodipodi.sourceforge.net/DTD/sodipodi-0.dtd"
   xmlns="http://www.w3.org/2000/svg"
   xmlns:svg="http://www.w3.org/2000/svg"
   xmlns:rdf="http://www.w3.org/1999/02/22-rdf-syntax-ns#"
   xmlns:cc="http://creativecommons.org/ns#"
   xmlns:dc="http://purl.org/dc/elements/1.1/">
  <sodipodi:namedview
     id="namedview18"
     pagecolor="#ffffff"
     bordercolor="#000000"
     borderopacity="0.25"
     inkscape:showpageshadow="2"
     inkscape:pageopacity="0.0"
     inkscape:pagecheckerboard="0"
     inkscape:deskcolor="#d1d1d1"
     inkscape:zoom="0.32630407"
     inkscape:cx="583.81129"
     inkscape:cy="222.1854"
     inkscape:window-width="1272"
     inkscape:window-height="720"
     inkscape:window-x="0"
     inkscape:window-y="34"
     inkscape:window-maximized="0"
     inkscape:current-layer="svg18" />
  <defs
     id="defs1">
    <clipPath
       id="clip-0">
      <polygon
         id="path-2"
         points="1371.76,-688.27 1371.76,1196.44 -278.57,2160.65 -1929,1196.44 -1929,-688.27 -278.57,-1652.4 "
         fill-rule="nonzero"
         stroke-width="1"
         style="stroke-width:31.975"
         stroke="none" />
    </clipPath>
  </defs>
  <g
     transform="matrix(0.123586,0,0,0.123586,181.1051,84.387138)"
     id="g18">
    <g
       transform="matrix(1.053752,0,0,1.053752,693.92554,1073.2413)"
       id="g17">
      <g
         clip-path="url(#clip-0)"
         id="g11">
        <path
           fill="#750787"
           d="M -2721,-1649.6 H 3278.97 V 2160.36 H -2721 Z"
           style="stroke-width:1"
           id="path1" />
        <path
           fill="#004dff"
           d="M -2721,-1649.6 H 3278.97 V 1525.37 H -2721 Z"
           style="stroke-width:1"
           id="path2" />
        <path
           fill="#008026"
           d="M -2721,-1649.6 H 3278.97 V 890.365 H -2721 Z"
           style="stroke-width:1"
           id="path3" />
        <path
           fill="#ffed00"
           d="M -2721,-1649.6 H 3278.97 V 255.365 H -2721 Z"
           style="stroke-width:1"
           id="path4" />
        <path
           fill="#ff8c00"
           d="M -2721,-1649.6 H 3278.97 V -379.63 H -2721 Z"
           style="stroke-width:1"
           id="path5" />
        <path
           fill="#e40303"
           d="m -2721,-1649.6 h 5999.97 v 635 H -2721 Z"
           style="stroke-width:1"
           id="path6" />
        <path
           d="M -2721,-2610.1 142.97,255.365 -2721,3120.86 Z"
           style="stroke-width:1"
           id="path7" />
        <path
           fill="#613915"
           d="M -2721,-2129.6 -337.03,255.365 -2721,2640.36 Z"
           style="stroke-width:1"
           id="path8" />
        <path
           fill="#74d7ee"
           d="M -2721,2160.36 V -1649.6 L -809.03,255.365 Z"
           style="stroke-width:1"
           id="path9" />
        <path
           fill="#ffafc8"
           d="M -2721,1680.37 V -1169.6 l 1420,1424.965 z"
           style="stroke-width:1"
           id="path10" />
        <path
           fill="#ffffff"
           d="m -2721,-689.63 951,944.995 -951,945.005 z"
           style="stroke-width:1"
           id="path11" />
      </g>
      <g
         transform="matrix(2.484423,0,0,2.484423,-13441.848,1962.3671)"
         id="g16">
        <polygon
           id="polygon11"
           fill="#ff6169"
           points="5483.08,-577.32 5483.08,-753.74 5069.57,-511.17 5069.57,-334.75 "
           fill-rule="nonzero"
           stroke="none"
           stroke-width="1"
           style="stroke-width:31.975" />
        <polygon
           id="polygon12"
           fill="#ff6169"
           points="5483.08,-930.15 5637.05,-841.94 5223.53,-599.37 5069.57,-687.58 "
           fill-rule="nonzero"
           stroke="none"
           stroke-width="1"
           style="stroke-width:31.975" />
        <polygon
           id="polygon13"
           fill="#ff6169"
           points="5329.11,-1194.8 5483.08,-1106.6 5069.57,-863.99 4915.6,-952.2 "
           fill-rule="nonzero"
           stroke="none"
           stroke-width="1"
           style="stroke-width:31.975" />
        <polygon
           id="polygon14"
           fill="#ffb4b5"
           points="5637.05,-665.53 5637.05,-841.94 5223.53,-599.37 5223.53,-422.96 "
           fill-rule="nonzero"
           stroke="none"
           stroke-width="1"
           style="stroke-width:31.975" />
        <polygon
           id="polygon15"
           fill="#ffb4b5"
           points="5483.08,-930.15 5483.08,-1106.6 5069.57,-863.99 5069.57,-687.58 "
           fill-rule="nonzero"
           stroke="none"
           stroke-width="1"
           style="stroke-width:31.975" />
        <polygon
           id="polygon16"
           fill="#ffffff"
           points="5069.57,-511.17 5223.53,-422.96 5223.53,-599.37 5069.57,-687.58 5069.57,-863.99 4915.6,-952.2 4915.6,-422.96 5069.57,-334.75 "
           fill-rule="nonzero"
           stroke="none"
           stroke-width="1"
           style="stroke-width:31.975" />
      </g>
    </g>
  </g>
  <title
     id="title18">navbar-brand</title>
  <metadata
     id="metadata18">
    <rdf:RDF>
      <cc:Work
         rdf:about="">
        <dc:title>navbar-brand</dc:title>
      </cc:Work>
    </rdf:RDF>
  </metadata>
  <path
     d="m 479.86108,225.74985 v -23.04 h 20.16 v -33.36 h 28.32 v 33.36 h 28.8 v 23.04 h -28.8 v 53.52 q 0,7.68 2.64,12.72 2.88,5.04 12.48,5.04 2.88,0 6.24,-0.48 3.36,-0.72 6,-1.92 l 0.96,22.56 q -3.84,1.44 -9.12,2.16 -5.28,0.96 -10.08,0.96 -11.52,0 -18.72,-3.12 -7.2,-3.36 -11.52,-8.88 -4.08,-5.76 -5.76,-12.96 -1.44,-7.44 -1.44,-15.84 v -53.76 z m 80.88004,-23.04 h 31.92 l 32.16,83.76 h 0.48 l 28.56,-83.76 h 30 l -54.48,139.92 q -3.12,7.92 -6.72,13.92 -3.6,6.24 -8.64,10.32 -5.04,4.32 -12,6.48 -6.72,2.16 -16.32,2.16 -3.6,0 -7.44,-0.48 -3.6,-0.24 -7.44,-1.2 l 2.4,-24.96 q 2.88,0.96 5.52,1.2 2.88,0.48 5.28,0.48 4.56,0 7.68,-1.2 3.12,-0.96 5.28,-3.36 2.16,-2.16 3.84,-5.52 1.68,-3.36 3.6,-7.92 l 5.76,-14.64 z m 168.00012,0 v 16.08 h 0.72 q 2.16,-3.36 5.52,-6.72 3.6,-3.6 8.64,-6.24 5.04,-2.88 11.28,-4.56 6.48,-1.92 14.4,-1.92 12.24,0 22.56,4.8 10.32,4.56 17.76,12.72 7.44,8.16 11.52,19.2 4.08,11.04 4.08,23.76 0,12.72 -4.08,24 -3.84,11.04 -11.28,19.44 -7.2,8.16 -17.76,13.2 -10.32,4.8 -23.52,4.8 -12.24,0 -22.56,-5.04 -10.08,-5.04 -15.6,-13.68 h -0.48 v 72.96 h -28.8 v -172.8 z m 67.2,57.12 q 0,-6.72 -2.16,-13.2 -1.92,-6.72 -6,-12 -4.08,-5.28 -10.32,-8.4 -6.24,-3.36 -14.64,-3.36 -7.92,0 -14.16,3.36 -6.24,3.36 -10.8,8.64 -4.32,5.28 -6.72,12 -2.16,6.72 -2.16,13.44 0,6.72 2.16,13.44 2.4,6.48 6.72,11.76 4.56,5.28 10.8,8.64 6.24,3.12 14.16,3.12 8.4,0 14.64,-3.36 6.24,-3.36 10.32,-8.64 4.08,-5.28 6,-12 2.16,-6.72 2.16,-13.44 z m 138.23986,-11.04 q 0,-5.52 -1.68,-10.56 -1.44,-5.04 -4.8,-8.88 -3.36,-3.84 -8.64,-6 -5.04,-2.4 -12,-2.4 -12.96,0 -22.08,7.92 -8.88,7.68 -9.84,19.92 z m 28.8,12.96 q 0,1.92 0,3.84 0,1.92 -0.24,3.84 h -87.6 q 0.48,6.24 3.12,11.52 2.88,5.04 7.44,8.88 4.56,3.6 10.32,5.76 5.76,2.16 12,2.16 10.8,0 18.24,-3.84 7.44,-4.08 12.24,-11.04 l 19.2,15.36 q -17.04,23.04 -49.44,23.04 -13.44,0 -24.72,-4.08 -11.28,-4.32 -19.68,-12 -8.16,-7.68 -12.96,-18.72 -4.56,-11.28 -4.56,-25.44 0,-13.92 4.56,-25.2 4.8,-11.52 12.96,-19.44 8.16,-8.16 19.2,-12.48 11.28,-4.56 24.24,-4.56 12,0 22.08,4.08 10.32,3.84 17.76,11.76 7.44,7.68 11.52,19.44 4.32,11.52 4.32,27.12 z m 28.31985,-125.28 h 28.80005 v 181.44 h -28.80005 z m 144.95995,112.32 q 0,-5.52 -1.68,-10.56 -1.44,-5.04 -4.8,-8.88 -3.36,-3.84 -8.64,-6 -5.04,-2.4 -12,-2.4 -12.96,0 -22.08,7.92 -8.88,7.68 -9.84,19.92 z m 28.8,12.96 q 0,1.92 0,3.84 0,1.92 -0.24,3.84 h -87.6 q 0.48,6.24 3.12,11.52 2.88,5.04 7.44,8.88 4.56,3.6 10.32,5.76 5.76,2.16 12,2.16 10.8,0 18.24,-3.84 7.44,-4.08 12.24,-11.04 l 19.2,15.36 q -17.04,23.04 -49.44,23.04 -13.44,0 -24.72,-4.08 -11.28,-4.32 -19.68,-12 -8.16,-7.68 -12.96,-18.72 -4.56,-11.28 -4.56,-25.44 0,-13.92 4.56,-25.2 4.8,-11.52 12.96,-19.44 8.16,-8.16 19.2,-12.48 11.28,-4.56 24.24,-4.56 12,0 22.08,4.08 10.32,3.84 17.76,11.76 7.44,7.68 11.52,19.44 4.32,11.52 4.32,27.12 z m 10.5598,-59.04 h 31.44 l 30.24,84 h 0.48 l 30.48,-84 h 30.48 l -45.84,115.2 h -30.72 z m 221.5201,46.08 q 0,-5.52 -1.68,-10.56 -1.44,-5.04 -4.8,-8.88 -3.36,-3.84 -8.64,-6 -5.04,-2.4 -12,-2.4 -12.96,0 -22.08,7.92 -8.88,7.68 -9.84,19.92 z m 28.8,12.96 q 0,1.92 0,3.84 0,1.92 -0.24,3.84 h -87.6 q 0.48,6.24 3.12,11.52 2.88,5.04 7.44,8.88 4.56,3.6 10.32,5.76 5.76,2.16 12,2.16 10.8,0 18.24,-3.84 7.44,-4.08 12.24,-11.04 l 19.2,15.36 q -17.04,23.04 -49.44,23.04 -13.44,0 -24.72,-4.08 -11.28,-4.32 -19.68,-12 -8.16,-7.68 -12.96,-18.72 -4.56,-11.28 -4.56,-25.44 0,-13.92 4.56,-25.2 4.8,-11.52 12.96,-19.44 8.16,-8.16 19.2,-12.48 11.28,-4.56 24.24,-4.56 12,0 22.08,4.08 10.32,3.84 17.76,11.76 7.44,7.68 11.52,19.44 4.32,11.52 4.32,27.12 z m 28.3199,-125.28 h 28.8 v 181.44 h -28.8 z"
     id="text18"
     style="font-weight:600;font-size:240px;font-family:'Avenir Next';-inkscape-font-specification:'Avenir Next, Semi-Bold';fill:#2b2f36"
     aria-label="typelevel" />
</svg>
