<svg xmlns:sketch="http://www.bohemiancoding.com/sketch/ns" xmlns="http://www.w3.org/2000/svg" viewBox="-99.5 70.5 141 47" enable-background="new -99.5 70.5 141 47"><style type="text/css">.st0{fill:url(#Shape_2_);} .st1{fill:#FF6169;} .st2{fill:#FFFFFF;} .st3{fill:#FFB4B5;} .st4{opacity:0.9;} .st5{fill:#21303F;}</style><title>Page-1_12_</title><desc>Created with Sketch Beta.</desc><g id="Page-1" sketch:type="MSPage"><linearGradient id="Shape_2_" gradientUnits="userSpaceOnUse" x1="-115.577" y1="2.243" x2="-114.586" y2="1.735" gradientTransform="matrix(39.8 0 0 45.8 4501.6 2.3)"><stop offset="0" stop-color="#FF4C61"/><stop offset="1" stop-color="#F51C2B"/></linearGradient><path id="Shape" class="st0" d="M-78.4 116.3l-19.9-11.3-.2-22.9 19.7-11.6 19.8 11.2.2 22.9-19.6 11.7z"/><g id="Shape_1_"><path class="st1" d="M-85.2 98.9v5.3l12.5-7v-5.4l-12.5 7.1z"/><path class="st2" d="M-85.2 88.2l-4.7-2.6v16l4.6 2.6v-5.3l4.6 2.7.1-5.4-4.7-2.6.1-5.4"/><path class="st3" d="M-80.6 96.2v5.4l12.4-7.1v-5.3l-12.4 7zm7.8-15l-12.5 7v5.4l12.5-7.1v-5.3z"/><path class="st1" d="M-72.7 86.5l-12.5 7.1 4.6 2.6 12.4-7.1-4.5-2.6zm-.1-5.3l-4.6-2.7-12.5 7.1 4.6 2.6 12.5-7z"/></g><path class="st5" d="M-43.4 78.2v10.3h-2.8v-10.3h-2.3v-2.4h7.5v2.4h-2.4zm10 5.7v4.6h-2.8v-4.6l-3.2-8.2h3.1l1.5 5.3 1.5-5.3h3.1l-3.2 8.2zm13.8-4.1c0 .7-.1 1.3-.3 1.8-.2.5-.5.9-.9 1.3s-.8.6-1.2.7-.9.2-1.4.2h-1.2v4.6h-2.8v-12.6h4c.5 0 .9.1 1.4.2.5.1.9.4 1.3.7.4.3.7.7.9 1.2.1.5.2 1.1.2 1.9zm-2.7 0c0-.6-.1-1-.4-1.2-.3-.3-.6-.4-1-.4h-.9v3.3h.9c.4 0 .7-.1 1-.4.3-.3.4-.7.4-1.3zm5.6 8.7v-12.7h6.2v2.5h-3.5v2.5h3.1v2.4h-3.1v2.7h3.6v2.6h-6.3zm9.8 0v-12.7h2.9v10.1h3.4v2.7h-6.3zm9.4 0v-12.7h6.2v2.5h-3.4v2.5h3.1v2.4h-3.1v2.7h3.6v2.6h-6.4zm15.5 0h-3.7l-3.1-12.7h3.3l1.7 9.3 1.7-9.3h3.1l-3 12.7zm6 0v-12.7h6.2v2.5h-3.4v2.5h3.1v2.4h-3.1v2.7h3.6v2.6h-6.4zm9.9 0v-12.7h2.9v10.1h3.4v2.7h-6.3zm-76 13.3c-.2-.3-.5-.4-.8-.6-.3-.1-.6-.2-.9-.2-.3 0-.6.1-.9.3-.3.2-.4.5-.4 1 0 .4.1.7.4.9.3.2.7.5 1.2.7.3.1.6.3.9.5.3.2.6.4.9.7.3.3.5.6.7 1s.3.9.3 1.4c0 .7-.1 1.3-.3 1.8-.2.5-.5 1-.9 1.3-.4.3-.8.6-1.3.8-.5.2-1 .3-1.5.3-.8 0-1.5-.1-2.1-.4-.6-.3-1.1-.6-1.5-1l1.5-2.2c.3.3.6.5 1 .7.4.2.7.3 1.1.3.3 0 .6-.1.9-.3.2-.2.4-.5.4-1 0-.4-.1-.8-.4-1s-.7-.5-1.3-.8l-1-.6c-.3-.2-.6-.4-.8-.7-.2-.3-.4-.6-.5-1-.1-.4-.2-.8-.2-1.4 0-.7.1-1.3.4-1.8.2-.5.5-.9.9-1.3.4-.3.8-.6 1.3-.7.5-.2.9-.2 1.4-.2.7 0 1.3.1 1.9.3.6.2 1 .5 1.4.9l-1.8 2.3zm10.8 9.5c-.6.3-1.3.5-2.2.5-.7 0-1.4-.2-2-.5-.6-.3-1.1-.8-1.6-1.4s-.8-1.3-1-2.1c-.2-.8-.4-1.7-.4-2.7 0-1 .1-1.9.4-2.7.2-.8.6-1.5 1-2.1.4-.6 1-1 1.6-1.4.6-.3 1.3-.5 2-.5.9 0 1.6.2 2.1.5s1 .7 1.4 1.1l-1.5 2.1c-.2-.3-.5-.5-.7-.7s-.6-.3-1-.3-.7.1-1 .3c-.3.2-.5.5-.7.8-.2.4-.3.8-.4 1.3-.1.5-.1 1-.1 1.6s0 1.1.1 1.5c.1.5.2.9.4 1.3s.4.6.7.8.6.3 1 .3.7-.1 1-.3c.3-.2.5-.4.7-.7l1.6 2c-.3.6-.8 1-1.4 1.3zm9.8.2l-.5-2.3h-2.9l-.5 2.3h-2.9l3.1-12.7h3.6l3.1 12.7h-3zm-1.9-10l-1.2 5.4h2.2l-1-5.4zm7.8 10v-12.7h2.9v10.1h3.4v2.7h-6.3zm15.1 0l-.5-2.3h-2.9l-.5 2.3h-2.9l3.1-12.7h3.6l3.1 12.7h-3zm-2-10l-1.2 5.4h2.2l-1-5.4z"/></g></svg>